<svg width="92" height="92" viewBox="0 0 92 92" fill="none" xmlns="http://www.w3.org/2000/svg">
<g filter="url(#filter0_d_1589_44)">
<circle cx="46" cy="36" r="31" fill="white"/>
</g>
<path d="M39.6144 31.457C40.6081 30.3796 42.1119 29.8335 44.0832 29.8335H44.7916V31.8303L44.2221 31.9443C43.2516 32.1384 42.5766 32.5202 42.2154 33.0805C42.0269 33.3823 41.92 33.7279 41.9051 34.0835H44.0832C44.2711 34.0835 44.4513 34.1581 44.5841 34.291C44.7169 34.4238 44.7916 34.604 44.7916 34.7918V39.7502C44.7916 40.5315 44.1562 41.1668 43.3749 41.1668H39.1249C38.937 41.1668 38.7569 41.0922 38.624 40.9594C38.4912 40.8265 38.4166 40.6464 38.4166 40.4585V36.9168L38.4187 34.8492C38.4123 34.7706 38.2777 32.9077 39.6144 31.457ZM51.1666 41.1668H46.9166C46.7287 41.1668 46.5485 41.0922 46.4157 40.9594C46.2829 40.8265 46.2082 40.6464 46.2082 40.4585V36.9168L46.2104 34.8492C46.204 34.7706 46.0694 32.9077 47.406 31.457C48.3998 30.3796 49.9036 29.8335 51.8749 29.8335H52.5832V31.8303L52.0137 31.9443C51.0433 32.1384 50.3683 32.5202 50.007 33.0805C49.8185 33.3823 49.7116 33.7279 49.6968 34.0835H51.8749C52.0628 34.0835 52.2429 34.1581 52.3758 34.291C52.5086 34.4238 52.5832 34.604 52.5832 34.7918V39.7502C52.5832 40.5315 51.9479 41.1668 51.1666 41.1668Z" fill="#0A72AD"/>
<defs>
<filter id="filter0_d_1589_44" x="0" y="0" width="92" height="92" filterUnits="userSpaceOnUse" color-interpolation-filters="sRGB">
<feFlood flood-opacity="0" result="BackgroundImageFix"/>
<feColorMatrix in="SourceAlpha" type="matrix" values="0 0 0 0 0 0 0 0 0 0 0 0 0 0 0 0 0 0 127 0" result="hardAlpha"/>
<feOffset dy="10"/>
<feGaussianBlur stdDeviation="7.5"/>
<feColorMatrix type="matrix" values="0 0 0 0 0.137255 0 0 0 0 0.529412 0 0 0 0 0.752941 0 0 0 0.15 0"/>
<feBlend mode="normal" in2="BackgroundImageFix" result="effect1_dropShadow_1589_44"/>
<feBlend mode="normal" in="SourceGraphic" in2="effect1_dropShadow_1589_44" result="shape"/>
</filter>
</defs>
</svg>
