<svg width="198" height="59" viewBox="0 0 198 59" fill="none" xmlns="http://www.w3.org/2000/svg">
<path d="M73.6507 33.32L84 1.0097H71.9091L65.7799 20.1603L65.7129 19.4199L65.6794 18.7131L65.5789 18.0399L65.4785 17.3331L65.3445 16.66L65.177 15.9532L65.0096 15.2801L64.8086 14.607L64.5742 13.9338L64.3732 13.2944L64.0718 12.6212L63.8038 11.9817L63.4689 11.3759L63.134 10.7365L62.7655 10.097L62.3971 9.49116L61.5933 8.41415L60.7225 7.40445L59.8517 6.46207L58.8134 5.55334L57.8086 4.71192L56.7368 3.97148L55.5646 3.29835L54.3588 2.65887L53.1196 2.08671L51.8469 1.58186L50.5407 1.17798L49.201 0.807758L47.7943 0.538506L46.3541 0.269253L44.9139 0.134627L43.4402 0.0673131L41.8995 0L40.3588 0.0673131L38.8182 0.168283L37.244 0.336566L35.7033 0.572162L34.1292 0.875071L32.5215 1.24529L30.9474 1.71649L29.3397 2.22133L27.7321 2.7935L26.1579 3.46663L24.5502 4.20707L22.9426 4.98117L21.4019 5.85625L19.8612 6.76497L18.3206 7.77467L16.8134 8.81803L15.4067 9.89504L14.0335 11.0394L12.6938 12.2173L11.4211 13.3953L10.2153 14.6406L9.07656 15.9196L8.03828 17.2322L7 18.5784L6.02871 19.891L5.19139 21.271L4.35407 22.6172L3.61722 24.0308L2.94737 25.4444L2.311 26.858L1.77512 28.2715L1.27273 29.6515L0.870813 31.0987L0.569378 32.5123L0.334928 33.9258L0.133971 35.3394L0.0669856 36.753L0 38.0993L0.0669856 39.4455L0.200957 40.7918L0.435407 42.1044L0.669856 43.4507L1.03828 44.6959L1.54067 45.9076L2.07655 47.1529L2.71292 48.3309L3.41627 49.4752L4.15311 50.5185L4.99043 51.4946L5.86124 52.437L6.79904 53.2784L7.77033 54.0861L8.77512 54.8266L9.84689 55.4997L10.9856 56.1392L12.1579 56.7113L13.3301 57.2162L14.6029 57.6537L15.8756 58.024L17.1818 58.3269L18.555 58.5961L19.8947 58.8317L21.3014 58.9327L22.7416 59H24.1483L25.622 58.9663L27.1292 58.8654L28.6029 58.6971L30.11 58.4278L31.6172 58.1922L33.1579 57.822L34.6651 57.3845L36.1722 56.9133L37.7129 56.3748L39.2536 55.7353L40.7273 55.0958L42.2344 54.3554L43.7416 53.5476L45.2488 52.7062V50.2829L43.9761 50.9561L42.7368 51.5619L41.4641 52.1341L40.1914 52.6389L38.8852 53.1101L37.6124 53.514L36.3397 53.8842L35.067 54.1871L33.7608 54.4564L32.5215 54.6583L31.2823 54.8266L30.0096 54.9276L28.7703 54.9949H27.5646L26.3254 54.9612L25.1531 54.8266L23.9809 54.692L22.8421 54.49L21.7368 54.2544L20.6316 53.9852L19.5598 53.5813L18.5215 53.2111L17.5167 52.7735L16.512 52.2687L15.5742 51.7302L14.7033 51.158L13.799 50.5185L12.9617 49.7781L12.1914 49.0376L11.4545 48.2635L10.7512 47.4221L10.1148 46.5134L9.47847 45.5374L8.94258 44.494L8.47368 43.4507L8.07177 42.34L7.73684 41.2293L7.4689 40.085L7.26794 38.907L7.16746 37.7627L7.10048 36.5511V35.3394L7.16746 34.1278L7.30143 32.8825L7.53588 31.7045L7.80383 30.4592L8.13876 29.2139L8.50718 27.9686L9.00957 26.757L9.47847 25.5117L10.0813 24.3001L10.7177 23.1221L11.3876 21.9104L12.1914 20.7325L12.9617 19.5881L13.8325 18.4438L14.7703 17.3331L15.7416 16.2225L16.7799 15.1455L17.8852 14.0685L18.9904 13.0588L20.1962 12.0827L21.4354 11.1403L22.7081 10.2653L24.0144 9.39019L25.3541 8.58243L26.6938 7.84198L28.1005 7.16885L29.4402 6.56303L30.8134 5.99087L32.2201 5.51968L33.5933 5.04849L34.9665 4.67827L36.3732 4.3417L37.7129 4.1061L39.0861 3.90416L40.4593 3.73588L41.799 3.66857H43.1053L44.4115 3.70222L45.6842 3.76954L46.9569 3.93782L48.1962 4.13976L49.4019 4.40901L50.6077 4.74558L51.7129 5.1158L52.8517 5.58699L53.9234 6.05819L54.9617 6.664L55.933 7.23617L56.8708 7.9093L57.8086 8.6834L58.6459 9.4575L59.4498 10.2653L60.2201 11.174L60.8899 12.1837L61.4593 13.0251L61.9282 13.9002L62.3636 14.7752L62.7321 15.7176L63.0335 16.5927L63.2679 17.5351L63.4689 18.5448L63.6364 19.5208L63.7703 20.5305L63.8038 21.5402L63.8373 22.5836L63.8038 23.6269L63.7368 24.7376L63.6029 25.8146L63.4689 26.9253L63.2679 28.0359L63.0335 29.2476L62.6651 30.4592L62.2966 31.6372L61.8947 32.7479L61.4593 33.8585L60.9234 34.9355L60.3541 35.9789L59.7512 37.0559L59.0813 38.0656L58.378 39.0753L57.6411 40.0513L56.8038 41.0274L55.8995 41.9698L54.9617 42.9122L53.9904 43.8209L52.9521 44.6959L53.4211 44.8306L53.9234 44.8979L54.3923 44.9652L54.9282 45.0662L55.4976 45.1335L56.067 45.2008H56.6364H57.1722H58.0096L58.7799 45.1671L59.6172 45.0998L60.3876 44.9315L60.9569 44.8306L61.5598 44.6959L62.1292 44.5613L62.6651 44.3594L63.201 44.1911L63.7703 43.9555L64.2727 43.7536L64.8086 43.4843L65.3445 43.2151L65.8134 42.9458L66.3158 42.6429L66.8182 42.3063L67.2871 42.0034L67.7225 41.6669L68.1914 41.2966L68.6268 40.9264L69.0287 40.5225L69.4641 40.1187L69.866 39.7148L70.2344 39.3109L70.6029 38.8397L71.0048 38.4022L71.3397 37.931L71.6077 37.4598L71.9761 36.9549L72.244 36.4501L72.512 35.9789L72.7799 35.474L73.0144 34.9355L73.2488 34.397L73.4498 33.8585L73.6507 33.32Z" fill="#8F8F8F"/>
<path d="M125.542 45H125.642H125.675H125.808H126.672L127.569 44.9324L128.433 44.8311L129.297 44.6285L130.127 44.4258L130.958 44.2231L131.788 43.8854L132.586 43.6151L133.383 43.2436L134.114 42.8383L134.845 42.3992L135.609 41.9601L136.274 41.4534L136.938 40.9468L137.603 40.3726L138.201 39.7646L136.839 44.1556H148.7L159 12H146.939L141.391 29.4964L141.324 29.6991L141.092 30.4759L140.859 31.0164L140.626 31.5568L140.327 32.0635L139.962 32.5363L139.596 33.0092L139.198 33.4145L138.799 33.8199L138.334 34.1576L137.869 34.5292L137.337 34.7994L136.839 35.0358L136.274 35.2723L135.709 35.4411L135.144 35.61L134.546 35.6776L133.915 35.7451L133.649 35.7114L133.417 35.6438L133.151 35.5763L132.885 35.4411L132.652 35.3398L132.453 35.1709L132.254 35.0358L132.054 34.8669L131.888 34.5967L131.722 34.4278L131.622 34.1576L131.523 33.9212L131.39 33.6847L131.357 33.3808L131.323 33.1105L131.29 32.8066L131.357 32.3337L131.489 31.827L137.703 12H125.708L118.565 34.5967L118.432 34.9683L118.365 35.3398L118.299 35.6776L118.266 36.0491L118.133 36.522L118.066 36.9611L118 37.3664V37.8393L118.033 38.5486L118.133 39.2242L118.299 39.8997L118.498 40.5415L118.764 41.1494L119.096 41.7574L119.528 42.2979L119.927 42.7707L120.392 43.2436L120.924 43.6489L121.489 44.0205L122.087 44.3245L122.718 44.5609L123.349 44.7298L124.014 44.8987L124.712 44.9324L125.011 45H125.376H125.442H125.542Z" fill="#8F8F8F"/>
<path d="M110.125 12.3343H110.057H109.989L109.034 12.3678L108.114 12.4346L107.227 12.5684L106.341 12.7021L105.455 12.9027L104.602 13.1702L103.784 13.4043L102.932 13.7386L102.148 14.1398L101.364 14.5076L100.614 14.9422L99.8977 15.4103L99.1477 15.9119L98.5 16.4468L97.8523 17.0486L97.2386 17.6505L102.557 1H90.25L76 45H88.3068L93.8636 27.7143L93.9318 27.614V27.5471L94.2045 26.7112L94.4432 26.2097L94.75 25.6748L95.0568 25.2067L95.3977 24.7052L95.7386 24.2371L96.1477 23.8359L96.5909 23.4681L97.0682 23.1003L97.5114 22.766L98.0568 22.465L98.5682 22.231L99.1136 22.0304L99.6932 21.8298L100.307 21.6626L100.92 21.5623L101.534 21.5289L101.841 21.5623L102.08 21.6292L102.352 21.7295L102.625 21.8298L102.864 21.9635L103.068 22.1307L103.307 22.2644L103.511 22.465L103.682 22.6991L103.852 22.8663L103.989 23.1337L104.125 23.3678L104.193 23.6018L104.261 23.9027L104.295 24.1368V24.4043L104.261 24.9392L104.159 25.4073L97.6818 45H110.057L117.386 22.6991L117.489 22.3647L117.591 22.0304L117.659 21.6292L117.727 21.2614L117.83 20.8602L117.898 20.3921L117.932 19.924L118 19.4894L117.932 18.7538L117.83 18.0517L117.659 17.4164L117.455 16.7812L117.148 16.1793L116.807 15.6444L116.364 15.076L115.92 14.5745L115.477 14.1398L114.932 13.7052L114.352 13.3708L113.773 13.0365L113.091 12.8359L112.443 12.6353L111.761 12.4681L111.045 12.4012H110.705L110.398 12.3343H110.261H110.125Z" fill="#8F8F8F"/>
<path d="M122.646 56.0359V54.7291H126.126V57.502V57.8207V58.9044H124.842V58.4263L124.369 58.6494L123.829 58.8406L123.558 58.9044L123.254 58.9363L122.984 58.9681H122.713L122.071 58.9363L121.497 58.8725L121.227 58.8088L120.956 58.7131L120.72 58.6175L120.483 58.5219L120.247 58.3944L120.01 58.2351L119.807 58.1076L119.638 57.9163L119.503 57.6932L119.334 57.5339L119.199 57.3108L119.098 57.0876L118.861 56.6096L118.692 56.0677L118.625 55.5578L118.591 54.9841L118.625 54.4104L118.76 53.8367L118.895 53.3267L119.131 52.8167L119.267 52.5936L119.402 52.3705L119.571 52.1793L119.773 51.988L119.976 51.7968L120.213 51.6056L120.449 51.4781L120.72 51.3825L121.091 51.2231L121.564 51.0637L122.071 51H122.612H122.984L123.322 51.0319L123.626 51.0637L123.93 51.1275L124.234 51.1912L124.504 51.2869L124.741 51.4462L124.977 51.5737L125.18 51.7012L125.349 51.8924L125.518 52.0518L125.653 52.2749L125.755 52.498L125.856 52.7211L125.924 52.9761L125.991 53.2629L124.64 53.5179L124.504 53.2311L124.369 52.9761L124.2 52.7849L123.964 52.5936L123.66 52.4661L123.355 52.3705L123.018 52.3068H122.578H122.308L122.071 52.3386L121.801 52.4024L121.564 52.4661L121.328 52.5618L121.125 52.6574L120.922 52.7849L120.753 52.9442L120.551 53.1673L120.449 53.3586L120.348 53.5817L120.247 53.8367L120.179 54.1235L120.145 54.3785L120.111 54.6653V54.9841V55.2709L120.145 55.5578L120.179 55.8127L120.247 56.0996L120.348 56.3546L120.449 56.5777L120.618 56.8008L120.753 57.0239L120.922 57.1514L121.125 57.2789L121.328 57.3745L121.564 57.502L121.801 57.5657L122.071 57.6295L122.308 57.6614H122.578L123.018 57.6295L123.355 57.5976L123.66 57.5657L123.964 57.502L124.2 57.3745L124.403 57.2789L124.606 57.1514L124.809 57.0239V56.0677H122.646V56.0359ZM109.23 55.0478V54.7928L109.264 54.506L109.332 54.251L109.365 53.9641L109.602 53.3904L109.872 52.8486L110.008 52.5936L110.176 52.3386L110.345 52.1155L110.582 51.8924L110.819 51.7012L111.055 51.5418L111.325 51.3825L111.528 51.255L111.967 51.1594L112.373 51.0637L112.778 51H113.285H113.725L114.13 51.0637L114.536 51.1594L114.907 51.2869L115.245 51.4462L115.583 51.6693L115.887 51.8924L116.191 52.1793L116.428 52.4661L116.665 52.753L116.834 53.0717L117.036 53.4223L117.138 53.8367L117.205 54.2191L117.273 54.6016V55.0159V55.4303L117.205 55.8127L117.138 56.1952L117.036 56.5458L116.834 56.8964L116.665 57.2151L116.462 57.5339L116.191 57.8207L115.921 58.0757L115.583 58.2988L115.279 58.5219L114.907 58.7131L114.536 58.8088L114.13 58.9044L113.725 58.9681H113.285H112.88L112.474 58.9044L112.069 58.8088L111.697 58.7131L111.325 58.5219L110.987 58.3625L110.683 58.1076L110.413 57.8526L110.143 57.5657L109.906 57.2789L109.703 56.9602L109.568 56.6096L109.467 56.259L109.365 55.8765L109.332 55.4622L109.23 55.0478ZM110.886 55.0159L110.92 55.5259L111.021 55.9721L111.089 56.2271L111.19 56.4502L111.292 56.6733L111.427 56.8327L111.596 57.0239L111.798 57.2151L112.001 57.3426L112.238 57.4701L112.474 57.5657L112.711 57.6295L113.015 57.6614L113.285 57.6932L113.589 57.6614L113.86 57.6295L114.13 57.5657L114.367 57.4701L114.603 57.3426L114.806 57.2151L114.941 57.0239L115.144 56.8327L115.245 56.6414L115.347 56.4183L115.448 56.1952L115.516 55.9721L115.617 55.4622L115.651 54.9841L115.617 54.4741L115.516 54.0279L115.448 53.7729L115.347 53.5498L115.245 53.3904L115.144 53.1673L115.009 53.008L114.806 52.8486L114.603 52.7211L114.367 52.6255L114.13 52.5299L113.86 52.4661L113.589 52.4343L113.285 52.4024L112.981 52.4343L112.711 52.4661L112.441 52.5299L112.204 52.6255L112.001 52.7211L111.765 52.8486L111.63 53.0398L111.461 53.2311L111.325 53.4223L111.224 53.6454L111.123 53.8367L111.055 54.0598L110.954 54.5378L110.886 55.0159ZM85.8799 58.8725V51.0956H87.2991L91.0839 56.2908V51.0956H92.6045V58.8725H91.1177L87.4005 53.8367V58.8725H85.8799ZM77.0601 58.8725V51.0956H78.6821V54.1554H82.3317V51.0956H83.9199V58.8725H82.3317V55.494H78.6821V58.8725H77.0601ZM60.9412 58.8725V51.0956H66.8886V52.4024H62.597V54.1235H66.5845V55.4303H62.597V57.5339H67.0576V58.8406H60.9412V58.8725ZM129.438 58.8725V55.5896L126.532 51.0956H128.424L130.283 54.1554L132.141 51.0956H134L131.094 55.6215V58.8725H129.438ZM103.519 58.8725V51.1912H105.141V57.5657H108.757V58.8725H103.519ZM94.159 55.0478V54.7928L94.1927 54.506L94.2265 54.251L94.2941 53.9641L94.4969 53.3904L94.7672 52.8486L94.97 52.5936L95.1051 52.3386L95.2741 52.1155L95.5106 51.8924L95.7134 51.7012L95.9837 51.5418L96.2203 51.3825L96.4906 51.255L96.8623 51.1594L97.2678 51.0637L97.7409 51H98.2478H98.6871L99.0926 51.0637L99.4981 51.1594L99.8698 51.2869L100.208 51.4462L100.546 51.6693L100.85 51.8924L101.154 52.1793L101.39 52.4661L101.593 52.753L101.796 53.0717L101.931 53.4223L102.1 53.8367L102.168 54.2191L102.235 54.6016V55.0159V55.4303L102.168 55.8127L102.1 56.1952L101.931 56.5458L101.796 56.8964L101.593 57.2151L101.39 57.5339L101.154 57.8207L100.85 58.0757L100.546 58.2988L100.208 58.5219L99.8698 58.7131L99.4981 58.8088L99.0926 58.9044L98.6871 58.9681H98.2478H97.8085L97.3354 58.9044L96.9637 58.8088L96.592 58.7131L96.2203 58.5219L95.8824 58.3625L95.5782 58.1076L95.3079 57.8526L95.0375 57.5657L94.8348 57.2789L94.632 56.9602L94.4969 56.6096L94.3279 56.259L94.2603 55.8765L94.1927 55.4622V55.0478H94.159ZM95.8148 55.0159L95.8486 55.5259L95.9499 55.9721L96.0175 56.2271L96.1189 56.4502L96.2203 56.6733L96.3892 56.8327L96.5244 57.0239L96.7272 57.2151L96.9299 57.3426L97.0989 57.4701L97.3692 57.5657L97.6058 57.6295L97.9099 57.6614L98.1802 57.6932L98.4844 57.6614L98.7547 57.6295L99.025 57.5657L99.2278 57.4701L99.4643 57.3426L99.6671 57.2151L99.8022 57.0239L99.9374 56.8327L100.073 56.6414L100.174 56.4183L100.275 56.1952L100.343 55.9721L100.444 55.4622L100.478 54.9841L100.444 54.4741L100.343 54.0279L100.275 53.7729L100.174 53.5498L100.073 53.3904L99.9712 53.1673L99.7685 53.008L99.6333 52.8486L99.4305 52.7211L99.194 52.6255L98.9912 52.5299L98.7209 52.4661L98.4506 52.4343L98.1464 52.4024L97.8423 52.4343L97.572 52.4661L97.3016 52.5299L97.0651 52.6255L96.8285 52.7211L96.6258 52.8486L96.4906 53.0398L96.2879 53.2311L96.1865 53.4223L96.0851 53.6454L95.9837 53.8367L95.9161 54.0598L95.8148 54.5378V55.0159ZM73.816 56.0359L75.4718 56.5139L75.4043 56.8327L75.2691 57.1195L75.1339 57.3745L74.965 57.6295L74.7622 57.8845L74.5932 58.0438L74.3905 58.2351L74.1539 58.4263L73.9174 58.5538L73.6471 58.6813L73.3767 58.8088L73.1064 58.8725L72.8023 58.9363L72.4981 58.9681L72.194 59H71.8561H71.4506L71.0788 58.9681L70.7071 58.8725L70.3354 58.7769L69.9975 58.6494L69.6596 58.4582L69.3554 58.2351L69.0851 58.012L68.8148 57.7251L68.5782 57.4064L68.3755 57.0558L68.1727 56.7052L68.0713 56.3227L68.0038 55.9084L67.9362 55.5259V55.0159L67.97 54.6016L68.0038 54.1873L68.0713 53.8048L68.2403 53.4223L68.3755 53.0717L68.5782 52.7211L68.8148 52.4024L69.0851 52.1155L69.3892 51.8606L69.6934 51.6375L70.0313 51.4462L70.3692 51.255L70.7747 51.1594L71.1802 51.0956L71.5857 51.0319H71.9912H72.3967L72.7347 51.0637L73.1064 51.1275L73.4105 51.2231L73.7484 51.3187L74.0188 51.4781L74.3229 51.6693L74.5595 51.8606L74.8636 52.1474L75.1001 52.4661L75.3029 52.8486L75.5056 53.2629L73.7822 53.6454L73.7146 53.3586L73.5795 53.1036L73.3767 52.8486L73.1402 52.6574L72.8698 52.5299L72.5995 52.4343L72.2954 52.3705L71.9574 52.3386L71.7209 52.3705H71.4506L71.214 52.4343L71.0113 52.498L70.8085 52.5618L70.6058 52.6574L70.4706 52.7849L70.3016 52.9761L70.1327 53.1992L69.9975 53.3904L69.8961 53.6454L69.7947 53.9323L69.7272 54.1873L69.6596 54.4741L69.6258 54.761V55.0478V55.3347L69.6596 55.6215L69.7272 55.8765L69.7947 56.1633L69.8961 56.4183L69.9975 56.6414L70.1327 56.8964L70.3016 57.0876L70.4706 57.2151L70.6058 57.3426L70.8085 57.4701L71.0113 57.5339L71.214 57.5976L71.4168 57.6614L71.6533 57.6932H71.8561L72.194 57.6614L72.4981 57.5976L72.8023 57.502L73.0726 57.3108L73.3091 57.0876L73.5119 56.8008L73.6471 56.4821L73.816 56.0359ZM55.3317 58.8725V52.4343H53V51.1275H59.3529V52.4343H56.9875V58.8725H55.3317Z" fill="#8F8F8F"/>
<path d="M39.9145 29.2232L39.2334 29.4587L38.5183 29.6269L37.8372 29.8624L37.1221 30.0642L36.407 30.1988L35.6919 30.4006L34.9767 30.5688L34.2616 30.737L33.8189 30.8379L33.4444 30.9388L31.8779 31.3761L30.5839 31.7798L30.039 32.0153L29.5282 32.2171L29.1196 32.4526L28.7791 32.6208L28.4726 32.8563L28.2002 33.0917L27.9277 33.3609L27.6553 33.63L27.451 33.9327L27.2467 34.2018L27.0424 34.5046L26.9402 34.8073L26.838 35.1774L26.7699 35.5138V35.8165L26.804 36.1529L26.8721 36.4557L26.9743 36.7248L27.1105 36.9939L27.2467 37.2294L27.5191 37.4985L27.7575 37.7339L28.0299 37.8685L28.3364 37.9694L28.6769 38.0367L29.0515 38.104L29.4942 38.1376H29.9369L30.7882 38.0703L31.6736 37.9358L32.0822 37.8685L32.4909 37.7676L32.8995 37.6667L33.3081 37.4985L33.6827 37.3639L34.0573 37.1957L34.5681 36.9266L35.0789 36.6575L35.5556 36.3884L35.9302 36.0856L36.3048 35.7492L36.6794 35.4465L36.9859 35.1101L37.2924 34.7737L37.5988 34.4373L37.9053 34.0336L38.1777 33.63L38.4502 33.159L38.6885 32.6881L38.9269 32.2171L39.1653 31.7125L39.3696 31.1743L39.9145 29.2232ZM33.3762 25.3884L34.5681 25.1529L35.5897 24.9174L36.407 24.682L37.054 24.5474L38.1777 24.2783L39.3355 23.9755L40.5274 23.6391L41.7193 23.2355L41.8555 22.8991L42.0257 22.5627L42.1279 22.2263L42.196 21.8563L42.2301 21.4862L42.2641 21.1162L42.2301 20.7462L42.196 20.3761L41.8214 20.208L41.3787 20.0398L40.9701 19.8379L40.5615 19.7034L40.1528 19.5352L39.7782 19.4679L39.4037 19.367L39.0291 19.3333L38.3821 19.2997H37.701L37.054 19.367L36.441 19.4679L35.8281 19.6361L35.2151 19.8043L34.6362 20.0398L34.1254 20.3089L33.7508 20.578L33.3762 20.8135L32.8995 21.2171L32.3547 21.7217L31.8439 22.3272L31.3671 23L19.7209 21.7554L20.1977 21.0489L20.6404 20.3761L21.0831 19.7706L21.5257 19.1988L22.0025 18.6606L22.4111 18.1896L22.8538 17.7187L23.3646 17.315L23.8073 16.8777L24.3522 16.474L24.863 16.0703L25.4078 15.7003L25.9867 15.3303L26.5656 14.9602L27.1445 14.6239L27.7575 14.3211L28.3704 13.9847L29.0174 13.7156L29.6645 13.4465L30.3115 13.211L30.9925 12.9755L31.7076 12.7401L32.4568 12.6055L33.1719 12.4709L33.9551 12.3028L34.7384 12.2355L35.5556 12.1346L36.3729 12.0673L37.1902 12.0336L38.0075 12H38.8588H39.642H40.7658L41.8895 12.0336L42.9452 12.0673L43.9668 12.1346L44.9543 12.2018L45.9078 12.3028L46.7591 12.4037L47.5083 12.5382L48.2915 12.6728L49.0407 12.8746L49.7558 13.1437L50.4369 13.4465L51.0839 13.8165L51.6968 14.2875L52.2757 14.7584L52.8206 15.3303L53.3314 15.9021L53.74 16.5076L54.1146 17.1804L54.4211 17.8532L54.6935 18.5596L54.8297 19.3333L54.9659 20.107L55 20.8807V21.2844L54.9659 21.9235L54.9319 22.2936L54.8638 22.6636L54.7957 23L54.6935 23.37L54.2849 24.7156L53.74 26.2966L53.1611 28.1132L52.4801 30.1651L51.7309 32.4862L50.8455 35.1437L49.892 38.104L48.8364 41.4679L48.7342 41.8379L48.7002 42.208L48.6661 42.578L48.7002 42.948L48.7342 43.2844L48.8023 43.6208L48.8704 43.9235L48.9726 44.1927H47.8829H45.363H39.3015H37.088V44.1254L36.9518 43.8563L36.8497 43.5872L36.6794 43.2508L36.6113 42.9817L36.5091 42.3761V41.7706V41.4006L36.5432 41.0642L36.6113 40.7278L36.7135 40.3578L35.8621 41.0306L35.0108 41.6024L34.1935 42.107L33.3422 42.5443L32.7633 42.8471L32.2184 43.1162L31.7417 43.3517L31.1968 43.5199L30.3115 43.8563L29.358 44.159L28.3704 44.4281L27.3829 44.63L26.3613 44.8318L25.3056 44.9664L24.2841 45H23.1944H22.4111L21.662 44.9664L20.9468 44.8991L20.2998 44.8318L19.7209 44.7309L19.142 44.63L18.6312 44.4954L18.1885 44.2936L17.7799 44.1254L17.3713 43.8899L17.0307 43.6881L16.6902 43.419L16.3497 43.1498L16.0432 42.8471L15.7708 42.5443L15.4983 42.2416L15.26 41.9052L15.0216 41.6024L14.8173 41.2661L14.613 40.9297L14.4427 40.5596L14.3405 40.1896L14.2384 39.8196L14.1362 39.4495L14.0681 39.0459L14.0341 38.6422L14 38.2385V37.8349L14.0341 37.3976L14.1022 36.9266L14.1703 36.4893L14.2724 36.0184L14.4086 35.5138L14.5448 35.0092L14.7492 34.5719L14.9194 34.1346L15.1578 33.7309L15.3621 33.3609L15.6346 32.9908L15.8729 32.6208L16.4518 31.948L17.0648 31.3089L17.7118 30.7034L18.3929 30.0979L19.2101 29.526L20.1296 29.055L21.1171 28.5505L22.1728 28.1132L23.3646 27.7095L24.6586 27.3394L26.0208 27.0031L27.5191 26.7003L28.3364 26.5658L29.1877 26.4312L29.9369 26.2966L30.686 26.1621L31.4012 26.0275L32.0822 25.9266L32.6952 25.8257L33.3762 25.3884Z" fill="#8F8F8F"/>
<path d="M183.27 29.2745L182.605 29.5102L181.907 29.6786L181.175 29.9143L180.51 30.1163L179.812 30.251L179.114 30.4531L178.416 30.6214L177.717 30.7898L177.285 30.8908L176.919 30.9918L175.357 31.4296L174.126 31.8337L173.561 32.0694L173.096 32.2714L172.697 32.5071L172.364 32.6755L172.065 32.9112L171.766 33.1469L171.5 33.4163L171.267 33.6857L171.034 33.9888L170.835 34.2582L170.702 34.5612L170.602 34.8643L170.502 35.2347L170.436 35.5714V35.8745L170.469 36.2112L170.535 36.5143L170.635 36.7837L170.768 37.0531L170.934 37.2888L171.167 37.5582L171.433 37.7939L171.699 37.9959L171.998 38.0969L172.331 38.198L172.697 38.2653H173.096H173.594L174.426 38.198L175.19 38.0633L175.988 37.8612L176.687 37.6255L177.418 37.3224L178.083 36.9857L178.715 36.5816L179.347 36.1776L179.912 35.7061L180.477 35.1673L180.976 34.5949L181.408 33.9888L181.807 33.349L182.173 32.6755L182.472 31.9684L182.738 31.2612L183.27 29.2745ZM176.886 25.4357L178.05 25.2L179.014 24.9643L179.812 24.7286L180.477 24.5939L181.574 24.3245L182.705 24.0214L183.835 23.6847L185.032 23.2806L185.165 22.9439L185.298 22.6071L185.398 22.2704L185.465 21.9L185.498 21.5296V21.0918V20.7214L185.465 20.351L185.099 20.149L184.7 19.9806L184.301 19.8459L183.902 19.7112L183.071 19.4755L182.372 19.3408L181.707 19.3071H181.076L180.444 19.3745L179.812 19.4755L179.214 19.6439L178.648 19.8122L178.083 20.048L177.551 20.3173L177.185 20.5867L176.853 20.8224L176.321 21.2265L175.855 21.7316L175.39 22.3378L174.858 23.0112L163.52 21.7653L163.985 21.0582L164.417 20.3847L164.816 19.7786L165.249 19.2061L165.681 18.6673L166.146 18.1622L166.612 17.7245L167.044 17.3204L167.51 16.849L168.042 16.4449L168.54 16.0408L169.039 15.6704L169.604 15.3L170.17 14.9633L170.735 14.6265L171.333 14.2898L171.932 13.9867L172.53 13.7173L173.195 13.448L173.827 13.2122L174.492 12.9765L175.19 12.8082L175.855 12.6061L176.587 12.4714L177.352 12.3031L178.116 12.202L178.881 12.1347L179.679 12.0673L180.51 12.0337L181.275 12H182.106H182.871H184.002L185.066 12.0337L186.096 12.0673L187.094 12.1347L188.058 12.202L188.956 12.3031L189.82 12.4041L190.618 12.5388L191.383 12.6735L192.081 12.8755L192.78 13.1449L193.478 13.448L194.11 13.8184L194.708 14.2898L195.273 14.7612L195.805 15.3337L196.304 15.9061L196.703 16.5122L197.069 17.1857L197.368 17.8592L197.601 18.5663L197.801 19.3408L197.9 20.1153L198 20.7551L197.967 21.1592L197.933 21.799L197.801 22.5398L197.634 23.2806L197.169 24.6276L196.703 26.2102L196.138 28.0286L195.506 30.0827L194.775 32.4061L193.943 35.0663L193.012 38.0296L191.948 41.3969L191.882 41.7337L191.849 42.0704L191.815 42.4408V42.8112L191.882 43.1816L191.915 43.5184L192.048 43.8551L192.148 44.1245H191.084H188.623H182.672H180.544V44.0571L180.377 43.7878L180.278 43.5184L180.145 43.249L180.078 42.9796L179.978 42.3735L179.945 41.7673L179.978 41.3969L180.012 41.0602L180.078 40.7235L180.178 40.3531L179.347 41.0265L178.515 41.599L177.651 42.1041L176.886 42.5418L176.321 42.8449L175.789 43.1143L175.323 43.35L174.791 43.5184L173.894 43.8551L172.963 44.1582L172.032 44.4276L171.034 44.6296L170.037 44.8316L169.039 44.9663L168.008 45H167.011H166.18L165.481 44.9663L164.783 44.899L164.151 44.8316L163.553 44.7306L163.021 44.6296L162.522 44.4949L162.09 44.2929L161.624 44.1245L161.259 43.8888L160.893 43.6867L160.56 43.4173L160.261 43.148L159.962 42.8449L159.696 42.5418L159.397 42.2388L159.164 41.902L158.964 41.599L158.798 41.2622L158.598 40.9255L158.466 40.5551L158.299 40.1847L158.199 39.8143L158.133 39.4439L158.066 39.0398L158.033 38.6357L158 38.2316V37.8275L158.033 37.3898L158.066 36.9184L158.166 36.4806L158.233 36.0092L158.399 35.5041L158.598 34.999L158.798 34.5612L158.998 34.1235L159.164 33.7194L159.397 33.349L159.629 32.9786L159.895 32.6082L160.461 31.9347L161.026 31.2949L161.658 30.6888L162.356 30.0827L163.154 29.5102L163.985 29.0388L164.949 28.5337L166.013 28.0959L167.177 27.6918L168.407 27.3214L169.771 26.9847L171.234 26.6816L172.032 26.5469L172.796 26.4122L173.561 26.2776L174.293 26.1429L174.958 26.0082L175.623 25.9071L176.254 25.8061L176.886 25.4357Z" fill="#8F8F8F"/>
</svg>
