<svg width="163" height="49" viewBox="0 0 163 49" fill="none" xmlns="http://www.w3.org/2000/svg">
<path d="M34.603 12.4306V27.85C34.603 28.1 34.5017 28.3397 34.3214 28.5164C34.1411 28.6931 33.8966 28.7924 33.6416 28.7924H28.6762C28.4213 28.7923 28.1768 28.693 27.9966 28.5163C27.8163 28.3396 27.715 28.0999 27.7149 27.85V2.76954C27.7149 2.51959 27.8161 2.27988 27.9964 2.10314C28.1767 1.92641 28.4213 1.82712 28.6762 1.82712H33.2711C33.5261 1.82712 33.7706 1.92641 33.9509 2.10314C34.1312 2.27988 34.2325 2.51959 34.2325 2.76954V6.30153C34.2325 6.30153 35.875 1.26324 40.7497 1.26324C40.7497 1.26324 45.5713 0.691892 47.5318 5.93794C47.5318 5.93794 49.1743 1.26324 54.155 1.26324C54.155 1.26324 61.5619 0.831509 61.5619 8.34468L61.6183 12.4825V27.902C61.6183 28.1519 61.517 28.3916 61.3367 28.5684C61.1564 28.7451 60.9119 28.8444 60.6569 28.8444H55.6911C55.4362 28.8443 55.1917 28.7449 55.0114 28.5682C54.8312 28.3915 54.7299 28.1519 54.7297 27.902L54.6844 11.0801C54.8255 7.27096 51.682 7.54812 51.682 7.54812C47.7259 7.61751 48.1066 12.4825 48.1066 12.4825V27.902C48.1066 28.1519 48.0053 28.3916 47.825 28.5684C47.6447 28.7451 47.4002 28.8444 47.1452 28.8444H42.1799C41.9249 28.8443 41.6805 28.7449 41.5002 28.5682C41.3199 28.3915 41.2186 28.1519 41.2185 27.902V11.4607C41.2185 11.4607 41.5088 7.51321 37.9762 7.51321C37.9766 7.51321 34.4796 7.06319 34.603 12.4306ZM162.596 12.3845V27.8035C162.596 28.0534 162.495 28.293 162.315 28.4698C162.134 28.6465 161.89 28.7458 161.635 28.7459L156.471 28.844C156.216 28.8439 155.972 28.7445 155.791 28.5678C155.611 28.3911 155.51 28.1515 155.51 27.9015V11.4607C155.51 11.4607 155.8 7.51321 152.268 7.51321C152.268 7.51321 148.894 7.35032 148.894 13.5396V27.8496C148.894 28.0995 148.793 28.3392 148.612 28.5159C148.432 28.6926 148.188 28.7919 147.933 28.792H142.967C142.712 28.7919 142.467 28.6926 142.287 28.5159C142.107 28.3392 142.006 28.0995 142.005 27.8496V2.76954C142.006 2.51962 142.107 2.27998 142.287 2.10327C142.467 1.92655 142.712 1.82723 142.967 1.82712H147.562C147.817 1.82712 148.061 1.92641 148.242 2.10314C148.422 2.27988 148.523 2.51959 148.523 2.76954V6.30153C148.523 6.30153 150.166 1.26324 155.04 1.26324C155.04 1.26324 160.262 0.486621 162.021 5.84029C162.021 5.83988 162.596 6.94435 162.596 12.3845ZM126.744 1.15936C120.395 1.15936 115.247 6.40541 115.247 15.2354C115.247 23.0095 119.221 29.3114 126.744 29.3114C133.844 29.3114 138.242 23.0095 138.242 15.2354C138.242 6.56123 133.095 1.15936 126.744 1.15936ZM130.752 15.547C130.752 18.8713 130.328 20.6373 130.328 20.6373C129.725 24.1514 127.123 24.1564 126.739 24.1377C126.325 24.1539 123.701 24.1173 123.158 20.6373C123.158 20.6373 122.734 18.8713 122.734 15.547V14.9931C122.734 11.6689 123.158 9.90292 123.158 9.90292C123.701 6.42286 126.326 6.3863 126.739 6.40209C127.123 6.38339 129.725 6.38796 130.328 9.90292C130.328 9.90292 130.752 11.6689 130.752 14.9931V15.547ZM112.365 6.26663V2.66815C112.365 2.41823 112.263 2.17859 112.083 2.00188C111.903 1.82516 111.658 1.72584 111.403 1.72573H94.9905C94.7356 1.72573 94.491 1.82502 94.3108 2.00176C94.1305 2.17849 94.0292 2.4182 94.0292 2.66815V6.23879C94.0293 6.4887 94.1306 6.72834 94.3109 6.90505C94.4911 7.08177 94.7356 7.18109 94.9905 7.1812H103.552L93.4184 21.5917C93.4184 21.5917 93.0191 22.176 93.0322 22.8213V27.2047C93.0322 27.2047 92.9661 28.7077 94.7048 27.8355C94.7048 27.8355 97.7933 26.0063 102.972 26.0063C102.972 26.0063 108.086 25.944 111.496 27.993C111.496 27.993 112.911 28.6237 112.911 27.2367V23.4213C112.911 23.4213 113.039 22.4116 111.689 21.7812C111.689 21.7812 107.764 19.6687 102.618 20.0152L112.365 6.26663ZM23.8825 24.3072L22.3282 21.9877C21.8335 21.1218 21.8691 20.1519 21.8691 20.1519V9.45248C22.081 0.206969 11.6251 1.00354 11.6251 1.00354C2.33022 1.00354 0.957264 8.09454 0.957264 8.09454C0.569835 9.52022 1.69652 9.5547 1.69652 9.5547L6.23842 10.0064C6.23842 10.0064 7.01285 10.1801 7.29473 9.2763C7.29473 9.2763 7.89283 6.18269 11.2377 6.18269C14.8771 6.18269 14.8394 9.24472 14.8394 9.24472V11.8081C7.57407 12.0462 4.20717 14.0233 4.20717 14.0233C-0.278778 16.5165 0.00352809 21.4683 0.00352809 21.4683C0.00352809 29.5362 7.84536 29.1897 7.84536 29.1897C12.8612 29.1897 15.8283 25.5887 15.8283 25.5887C16.7113 27.1129 18.3365 28.5664 18.3365 28.5664C19.1495 29.4307 19.9968 28.7052 19.9968 28.7052L23.6706 25.6236C24.4828 25.0344 23.8825 24.3072 23.8825 24.3072ZM10.2933 24.2075C7.93395 24.2075 7.05694 21.9092 7.4486 19.6504C7.84069 17.3916 9.87703 15.6164 14.8398 15.6684V17.0417C15.0158 23.0411 12.2571 24.2075 10.2933 24.2075ZM89.8667 24.3072L88.3127 21.9877C87.818 21.1218 87.8532 20.1519 87.8532 20.1519V9.45248C88.0651 0.206969 77.6092 1.00354 77.6092 1.00354C68.3143 1.00354 66.9414 8.09454 66.9414 8.09454C66.5539 9.52022 67.6806 9.5547 67.6806 9.5547L72.2225 10.0064C72.2225 10.0064 72.997 10.1801 73.2789 9.2763C73.2789 9.2763 73.877 6.18269 77.2218 6.18269C80.8613 6.18269 80.8235 9.24472 80.8235 9.24472V11.8081C73.5586 12.0462 70.1913 14.0233 70.1913 14.0233C65.7053 16.5165 65.9876 21.4683 65.9876 21.4683C65.9876 29.5362 73.8295 29.1897 73.8295 29.1897C78.8453 29.1897 81.8125 25.5887 81.8125 25.5887C82.6958 27.1129 84.3202 28.5664 84.3202 28.5664C85.1332 29.4307 85.9809 28.7052 85.9809 28.7052L89.6543 25.6236C90.4669 25.0344 89.8667 24.3072 89.8667 24.3072ZM76.2774 24.2075C73.9181 24.2075 73.0411 21.9092 73.4327 19.6504C73.8248 17.3916 75.8611 15.6164 80.8235 15.6684V17.0417C80.9999 23.0411 78.2417 24.2075 76.2774 24.2075Z" fill="#8F8F8F"/>
<path d="M102.092 44.6165C102.092 44.6165 101.677 45.325 102.187 45.4833C102.187 45.4833 102.763 45.704 103.482 45.0499C103.482 45.0499 108.725 40.5601 108.852 32.3859C108.852 32.3859 108.89 31.3649 108.472 31.0857C108.472 31.0857 106.83 29.6612 100.923 30.0946C100.923 30.0946 95.7749 30.4354 92.9641 32.8816C92.9641 32.8816 92.7115 33.0981 92.7115 33.3765C92.7115 33.3765 92.6509 33.9778 94.1959 33.7172C94.1959 33.7172 99.344 33.0046 102.408 33.3765C102.408 33.3765 103.988 33.5622 104.43 34.0891C104.43 34.0891 105.156 34.6775 104.777 36.6276C104.777 36.6284 103.734 41.5823 102.092 44.6165Z" fill="#8F8F8F"/>
<path d="M101.054 36.7742C101.054 36.7742 101.823 37.7507 100.582 38.593C100.582 38.593 87.3287 48.9853 65.0748 48.9853C65.0748 48.9853 42.1674 50.0931 23.0396 33.0565C23.0396 33.0565 22.3691 32.4793 22.7853 31.9429C22.7853 31.9429 23.1575 31.4492 24.121 31.9861C24.121 31.9861 42.1144 42.9772 65.7458 42.9772C65.7458 42.9772 82.1713 43.6005 99.0206 36.5365C99.0206 36.5365 100.363 35.8546 101.054 36.7742Z" fill="#8F8F8F"/>
</svg>
