<svg width="64" height="73" viewBox="0 0 64 73" fill="none" xmlns="http://www.w3.org/2000/svg">
<path d="M47.3769 0C47.5609 0 47.7449 0 47.9393 0C48.3906 5.18967 46.2625 9.06739 43.6762 11.8755C41.1385 14.6642 37.6634 17.3689 32.043 16.9585C31.668 11.8432 33.7996 8.25307 36.3824 5.45142C38.7778 2.84043 43.1693 0.517029 47.3769 0Z" fill="#8F8F8F"/>
<path d="M64 53.723C64 53.7739 64 53.8185 64 53.8662C62.4315 58.2519 60.1943 62.0105 57.4642 65.4986C54.9719 68.6653 51.9177 72.9268 46.4643 72.9268C41.752 72.9268 38.622 70.1293 33.7925 70.0529C28.6838 69.9765 25.8744 72.3921 21.2035 73C20.6692 73 20.1349 73 19.6109 73C16.181 72.5417 13.4129 70.0338 11.3963 67.7742C5.44996 61.0971 0.854896 52.4723 0 41.435C0 40.353 0 39.2741 0 38.192C0.361952 30.2928 4.51923 23.8703 10.045 20.7577C12.9613 19.1028 16.9704 17.6929 21.4344 18.323C23.3476 18.5967 25.3022 19.2014 27.0154 19.7998C28.639 20.3758 30.6694 21.3974 32.5929 21.3433C33.8959 21.3083 35.1921 20.6813 36.5054 20.239C40.3525 18.9564 44.1237 17.486 49.0945 18.1766C55.0684 19.0105 59.3084 21.4611 61.9283 25.242C56.8747 28.2114 52.8795 32.6861 53.562 40.3275C54.1687 47.2687 58.5397 51.3297 64 53.723Z" fill="#8F8F8F"/>
</svg>
