<svg width="120" height="65" viewBox="0 0 120 65" fill="none" xmlns="http://www.w3.org/2000/svg">
<path d="M35.8243 11.358C38.8163 9.63941 42.2989 8.301 46.0924 7.38478C45.538 7.73222 45.0298 8.1052 44.5702 8.50292C44.3616 8.66839 42.7742 9.96025 41.2542 12.1308C40.3132 13.4745 39.5904 14.8821 39.1058 16.3139C38.4963 18.1155 38.2649 19.9575 38.4182 21.7889C38.4297 21.9831 38.543 23.566 39.2695 25.6272C40.2742 28.4793 41.9943 30.9263 44.2436 32.7042C44.4643 32.879 44.7546 32.9372 45.0256 32.8622L46.8367 32.3597L45.8485 40.434C41.5318 39.3662 37.6405 37.7593 34.4781 35.7056C29.4221 32.4227 26.6379 28.2452 26.6379 23.9424C26.6379 19.2291 29.9003 14.7597 35.824 11.3574L35.8243 11.358ZM47.126 21.6824C49.0355 15.7377 54.5612 14.8377 57.6857 14.8302C57.6979 14.8302 57.7101 14.8302 57.722 14.8302C61.3586 14.8302 64.3782 16.1088 66.2732 17.183C67.2574 17.7412 68.0416 18.2998 68.6055 18.7396L52.307 23.5205C52.048 23.5965 51.8495 23.7876 51.7481 24.0259C51.7481 24.0259 51.7481 24.0259 51.7476 24.0259C50.2955 24.0259 49.1138 25.2106 49.1138 26.6666C49.1138 28.1223 50.2955 29.3069 51.7476 29.3069C52.3462 29.3069 52.8923 29.0978 53.335 28.7594C53.426 28.8118 53.5223 28.852 53.6266 28.8698C53.3838 29.0835 53.1474 29.3729 52.951 29.777C52.6771 30.3394 52.5065 31.0425 52.429 31.9268C52.2783 33.6449 52.5275 35.6848 52.7626 37.0937C53.0736 38.9538 53.5438 40.6468 53.8848 41.7426C51.7213 41.5601 49.6103 41.2523 47.5797 40.828L48.7495 31.2649C48.7505 31.2554 48.7492 31.2461 48.75 31.2365C48.7588 31.1436 48.7495 31.0524 48.7301 30.9635C48.7245 30.9385 48.7195 30.9148 48.7118 30.8901C48.6815 30.7941 48.6377 30.7033 48.5764 30.6222C48.5727 30.6174 48.5725 30.6116 48.5687 30.607C48.5611 30.5972 47.7878 29.5924 47.2305 27.9829C46.4978 25.8663 46.4628 23.7466 47.126 21.6824ZM55.0357 26.9259C55.0442 26.8347 55.0487 26.7442 55.0487 26.6559C55.0487 25.9539 54.8261 25.2882 54.4378 24.7405L70.5936 20.0014L71.8636 24.5362L55.0357 26.9259ZM77.202 11.3181C77.4562 10.9611 77.4108 10.4713 77.0958 10.1667C76.4659 9.55774 75.7908 9.01317 75.0942 8.52607C78.0665 9.53779 80.7597 10.8246 83.0485 12.3482C87.9395 15.6025 90.6329 19.7202 90.6329 23.9427C90.6329 28.1542 87.9519 32.2636 83.0841 35.514C78.1682 38.7966 71.3756 40.9887 63.9443 41.6929L63.2544 39.5942L69.1595 40.0419C70.0525 40.1065 70.9083 39.7274 71.4494 39.0288C71.9817 38.3419 72.1335 37.4345 71.8549 36.5981L70.2645 31.893L72.0494 32.0399C72.3604 32.0657 72.6613 31.9247 72.8418 31.6696C73.0219 31.4147 73.0548 31.0832 72.928 30.7975L70.9964 26.4476L73.1108 26.1473C73.3629 26.1114 73.5874 25.968 73.7265 25.7546C73.8658 25.5407 73.9059 25.2773 73.8371 25.0315L72.0733 18.734C72.0595 18.6864 72.0427 18.6406 72.0223 18.597L77.2025 11.3186L77.202 11.3181ZM64.5064 35.4613L61.6924 35.3025C61.5292 34.9939 61.2898 34.5528 60.999 34.0503C60.6169 33.39 59.906 32.1612 59.241 31.2072C58.2875 29.839 57.2887 28.9361 56.3161 28.5325L61.2508 27.8315C61.6821 29.1787 62.8568 32.5994 64.5064 35.4616V35.4613ZM51.7478 25.7969C52.2266 25.7969 52.6158 26.1872 52.6158 26.6671C52.6158 27.1468 52.2266 27.537 51.7478 27.537C51.2694 27.537 50.8803 27.1468 50.8803 26.6671C50.8803 26.1872 51.2696 25.7969 51.7478 25.7969ZM33.5183 37.1919C38.9097 40.6923 46.2802 42.9507 54.2717 43.5495C54.4036 43.5596 54.5843 43.5684 54.7595 43.5769C54.8805 43.5833 54.9967 43.5886 55.0843 43.5942C55.1026 43.5953 55.1214 43.5961 55.1397 43.5961C55.4181 43.5961 55.6813 43.4641 55.8485 43.2388C56.0269 42.9983 56.0717 42.6833 55.9677 42.4027C55.9581 42.3769 55.002 39.7753 54.5047 36.8011C53.8129 32.6632 54.2269 30.2897 54.9927 30.0835C55.6636 29.9031 56.763 30.7419 57.7939 32.2205C58.4157 33.1136 59.1027 34.3004 59.4716 34.9381C59.9927 35.8386 60.3481 36.5473 60.3513 36.5539C60.4927 36.8378 60.775 37.0235 61.0908 37.0413L66.1248 37.3254C66.4634 37.3446 66.7827 37.1677 66.9467 36.8705C67.1109 36.5731 67.0907 36.2076 66.8952 35.9301C65.0278 33.2841 63.5932 29.2886 63.0283 27.5785L69.1778 26.7054L70.709 30.1529L69.0688 30.018C68.7721 29.9936 68.4839 30.1207 68.3008 30.3556C68.118 30.5905 68.0654 30.9021 68.1607 31.1843L70.1807 37.1618C70.3059 37.5377 70.1552 37.812 70.0543 37.9426C69.8734 38.1767 69.5934 38.2978 69.2893 38.276L62.0679 37.7279C61.7733 37.7053 61.4878 37.8322 61.306 38.065C61.124 38.298 61.0707 38.6066 61.1627 38.8878L62.4827 42.9023C62.6029 43.2678 62.9431 43.5104 63.321 43.5104C63.3454 43.5104 63.3703 43.5094 63.395 43.5075C63.4526 43.5027 63.5444 43.4971 63.6328 43.4918C63.7503 43.4844 63.8724 43.4769 63.9634 43.4684C71.7376 42.7528 78.8759 40.4505 84.0633 36.9868C86.6731 35.244 88.717 33.2658 90.138 31.1074C91.6384 28.8283 92.3987 26.4178 92.3987 23.9419C92.3987 21.46 91.6347 19.0439 90.1274 16.7606C88.6995 14.598 86.6466 12.6163 84.0256 10.8725C78.8133 7.40367 71.6463 5.10701 63.8456 4.40495C63.745 4.39617 63.6444 4.38713 63.5433 4.37888C63.0583 4.33791 62.6323 4.69759 62.5899 5.18363C62.5477 5.66941 62.9054 6.09852 63.39 6.14241C63.4096 6.14427 65.3688 6.3281 67.89 7.08231C70.0111 7.71706 72.9482 8.8884 75.3097 10.9289L70.3571 17.8867C69.7816 17.3887 68.7063 16.5344 67.1972 15.6728C65.0997 14.4751 61.7457 13.0494 57.6817 13.0593C54.903 13.0659 52.3614 13.7044 50.3321 14.9053C47.9693 16.3038 46.3251 18.4012 45.4454 21.1392C44.6655 23.567 44.7146 26.1584 45.5874 28.6328C45.8734 29.4439 46.2017 30.1098 46.4877 30.6193L44.9951 31.0335C43.1691 29.4894 41.8115 27.4934 40.9557 25.0943C40.2692 23.1696 40.1821 21.6941 40.1816 21.6811C40.1808 21.6713 40.18 21.6612 40.1795 21.6508C39.9351 18.7649 40.7728 15.9186 42.6694 13.1917C44.1133 11.1159 45.6593 9.8964 45.6736 9.88496C45.6861 9.87538 45.6986 9.86527 45.7105 9.85463C50.283 5.88516 59.1247 5.94475 59.6661 5.95247C59.6764 5.953 59.6868 5.95326 59.6971 5.95326C60.1835 5.96257 60.5856 5.57497 60.5965 5.08706C60.6068 4.59942 60.2215 4.19505 59.7356 4.18335C59.7268 4.18308 59.6998 4.18229 59.6563 4.18175C59.3177 4.1759 58.9748 4.17297 58.6362 4.17297C54.1271 4.17297 49.7512 4.68056 45.6296 5.68191C41.6331 6.65266 38.0393 8.04508 34.9475 9.82085C31.8207 11.6166 29.3587 13.718 27.6295 16.066C25.8004 18.5494 24.8729 21.1993 24.8729 23.9421C24.8729 26.4673 25.6632 28.9225 27.2219 31.2397C28.6976 33.4339 30.8163 35.4363 33.5191 37.1913L33.5183 37.1919Z" fill="#8F8F8F"/>
<path d="M12.1785 51.5009C12.1448 51.7348 12.0761 51.9069 11.9795 51.9995C11.8866 52.0881 11.785 52.1296 11.6597 52.1296C11.6167 52.1296 11.4182 52.1075 10.6601 51.8239C9.63337 51.4419 8.6417 51.2479 7.71292 51.2479C6.4519 51.2479 5.24422 51.5501 4.12305 52.1458C2.99737 52.7436 2.09114 53.5965 1.42905 54.6805C0.765906 55.7657 0.429688 56.9309 0.429688 58.144C0.429688 59.2957 0.733266 60.396 1.3322 61.4146C1.93378 62.4378 2.79914 63.233 3.90492 63.7778C4.99875 64.3168 6.26428 64.5903 7.66595 64.5903C8.73564 64.5903 9.6875 64.4211 10.4955 64.0872C11.3033 63.7531 12.088 63.2098 12.8278 62.4721L12.9146 62.3857V60.4441L12.4022 61.0127C11.6892 61.803 11.0069 62.3649 10.374 62.6828C9.74986 62.9962 9.05116 63.155 8.29725 63.155C7.38678 63.155 6.64084 62.9433 6.08012 62.5253C5.51781 62.1061 5.09667 61.4716 4.82839 60.6389C4.55029 59.7764 4.40938 58.8041 4.40938 57.7484C4.40938 56.6854 4.60071 55.7088 4.97832 54.8447C5.2612 54.194 5.71604 53.6592 6.32983 53.2559C6.94362 52.8524 7.62773 52.6478 8.36306 52.6478C9.2462 52.6478 10.0471 52.9234 10.7445 53.4669C11.4413 54.0104 11.9259 54.8093 12.1843 55.842L12.2403 56.0652H13.1314V51.2482H12.2148L12.1785 51.5012V51.5009Z" fill="#8F8F8F"/>
<path d="M25.2611 60.0583C24.9668 61.0687 24.4822 61.8274 23.8202 62.3129C23.1562 62.8 22.2495 63.0474 21.1259 63.0474H20.363C19.957 63.0474 19.7863 62.9828 19.7205 62.9439C19.6144 62.8819 19.5459 62.8085 19.5106 62.7202C19.4992 62.6914 19.4421 62.5026 19.4421 61.5978V58.4642C19.8609 58.4841 20.1873 58.5493 20.4155 58.6581C20.6772 58.7829 20.9163 59.042 21.1267 59.4278C21.3488 59.8359 21.4971 60.3738 21.5683 61.0269L21.5967 61.29H22.513V54.3146H21.5961L21.568 54.5785C21.4735 55.4676 21.2583 56.1417 20.9285 56.582C20.6259 56.985 20.1395 57.1851 19.4421 57.1923V52.8184H20.4665C21.6288 52.8184 22.1369 52.8999 22.3606 52.968C22.9057 53.1305 23.3295 53.3848 23.6203 53.7232C23.9154 54.0669 24.1519 54.6607 24.323 55.4884L24.3716 55.7233H25.2635V51.5269H13.9841V52.4495H14.7022C15.053 52.4495 15.3255 52.5165 15.5129 52.6479L15.5179 52.6516C15.6278 52.7256 15.7026 52.8294 15.7461 52.9693C15.7562 53.0161 15.783 53.2069 15.783 53.9081V61.9301C15.783 62.7375 15.7207 62.9093 15.7085 62.9354L15.7034 62.946C15.6429 63.0865 15.5641 63.1804 15.4625 63.2323L15.4537 63.2368C15.273 63.3376 15.0201 63.3887 14.7019 63.3887H13.9838V64.3116H25.5713L26.2334 59.8452H25.3229L25.2611 60.0575V60.0583Z" fill="#8F8F8F"/>
<path d="M35.5133 52.4548L35.8126 52.4497C36.4277 52.4391 36.8619 52.575 37.1004 52.8504C37.2188 52.989 37.3599 53.3258 37.3599 54.1425V58.5719L31.4901 51.5271H26.5275V52.4409L26.8127 52.4497C27.1582 52.4604 27.4185 52.5077 27.5871 52.5905C27.7035 52.6477 27.9052 52.7918 28.2077 53.1547L28.4115 53.396V61.8947C28.4115 62.4563 28.302 62.8484 28.0862 63.0594C27.8702 63.2698 27.4321 63.3839 26.8194 63.3893L26.5275 63.3919V64.3121H31.6469V63.3893H31.0514C30.6783 63.3893 30.3577 63.2874 30.0709 63.0775C29.8167 62.8912 29.6877 62.4933 29.6877 61.8947V54.943L37.8952 64.5907H38.6456V54.1422C38.6456 53.4795 38.7168 53.1781 38.7759 53.0422C38.854 52.8637 38.9551 52.741 39.0846 52.6679C39.1695 52.6197 39.4094 52.5274 40.0635 52.4476L40.3222 52.4159V51.5269H35.5135V52.4545L35.5133 52.4548Z" fill="#8F8F8F"/>
<path d="M41.0924 55.4178H41.9955L42.0353 55.1696C42.1679 54.3433 42.4845 53.703 42.9765 53.2656C43.3087 52.969 43.8737 52.8187 44.6552 52.8187H45.2841V61.9306C45.2841 62.738 45.2218 62.9099 45.2096 62.9359L45.2077 62.9399C45.1414 63.0833 45.0586 63.1794 44.954 63.2328L44.9455 63.2374C44.7645 63.3382 44.5117 63.3893 44.1937 63.3893H43.4754V64.3121H50.752V63.3893H50.0336C49.7216 63.3893 49.4798 63.3427 49.3142 63.2507C49.1606 63.1653 49.06 63.0729 49.0149 62.9753C49.0014 62.946 48.9337 62.7588 48.9337 61.9303V52.8184H49.5908C50.2778 52.8184 50.5856 52.8924 50.7201 52.9533C51.0999 53.1292 51.4005 53.3657 51.6147 53.6564C51.8363 53.9571 52.0451 54.4758 52.2356 55.1978L52.2935 55.4176H53.1538V51.5269H41.0921V55.4176L41.0924 55.4178Z" fill="#8F8F8F"/>
<path d="M62.6143 52.4497H62.9083C63.3762 52.4497 63.7349 52.5096 63.9746 52.6263C64.0977 52.6873 64.2057 52.8067 64.2949 52.9815C64.3615 53.1129 64.4416 53.3992 64.4416 54.0166V58.9898C64.4416 60.2354 64.3288 61.1104 64.1062 61.5903C63.8875 62.0625 63.5672 62.4222 63.1275 62.6904C62.6897 62.9575 62.1473 63.0926 61.5144 63.0926C60.9674 63.0926 60.5142 62.9886 60.1663 62.7827C59.8229 62.5797 59.5748 62.3251 59.4288 62.0255C59.3243 61.8119 59.1996 61.2846 59.1996 59.988V54.0164C59.1996 53.1073 59.2696 52.8817 59.2914 52.8341C59.3426 52.7203 59.4296 52.6319 59.557 52.5636C59.6366 52.521 59.8571 52.4497 60.4404 52.4497H61.0646V51.5271H53.8827V52.4532L54.1799 52.4497C54.8226 52.4428 55.0668 52.5173 55.1551 52.562C55.2976 52.6343 55.3932 52.724 55.4465 52.8352C55.4683 52.8812 55.5402 53.1028 55.5402 54.0164V59.988C55.5402 61.0481 55.7241 61.9114 56.0871 62.5528C56.4552 63.2043 57.0859 63.7415 57.9611 64.1498C58.6094 64.4528 59.488 64.6002 60.6477 64.6002C62.0276 64.6002 63.1392 64.3132 63.9523 63.747C64.7696 63.1775 65.2942 62.5355 65.5108 61.8388C65.7193 61.1687 65.8212 60.125 65.8212 58.6483V54.0169C65.8212 53.4199 65.8831 53.1853 65.92 53.0986L65.9237 53.0892C66.0062 52.8762 66.1336 52.7219 66.3143 52.6178C66.5064 52.5066 66.758 52.45 67.0621 52.45H67.6202V51.5274H62.614V52.45L62.6143 52.4497Z" fill="#8F8F8F"/>
<path d="M76.7216 56.6076C76.5077 56.9513 76.2232 57.1816 75.8514 57.3131C75.4518 57.4543 74.8253 57.5254 73.9902 57.5254H73.7476V52.7738H74.4612C75.3881 52.7738 76.059 52.9696 76.4554 53.3556C76.849 53.7395 77.0488 54.3614 77.0488 55.2034C77.0488 55.786 76.9389 56.2583 76.7216 56.6076ZM81.7115 63.1424C81.6078 63.0599 81.3851 62.8303 80.9136 62.2038L78.1015 58.4232C78.7251 58.2314 79.2333 57.9686 79.6175 57.639C80.36 56.9957 80.7368 56.1705 80.7368 55.1853C80.7368 54.3809 80.4858 53.669 79.9914 53.0685C79.5026 52.4755 78.8639 52.0634 78.093 51.844C77.3436 51.6303 76.2081 51.5269 74.6215 51.5269H68.3931V52.4495H68.6871C69.3914 52.4495 69.6597 52.5274 69.7568 52.574C69.911 52.6474 70.0126 52.737 70.0675 52.848C70.0901 52.8935 70.1639 53.1087 70.1639 53.9621V61.8761C70.1639 62.729 70.0909 62.9394 70.0683 62.9841C70.0126 63.0945 69.911 63.186 69.7573 63.2624C69.6626 63.3092 69.3975 63.3887 68.6874 63.3887H68.3933V64.3116H75.5189V63.3887H75.2247C74.5198 63.3887 74.2521 63.3108 74.1547 63.2645C74.0011 63.1908 73.8997 63.1014 73.8445 62.9902C73.8219 62.9444 73.7482 62.7295 73.7482 61.8758V58.7536H74.1441L78.2602 64.3116H82.7247V63.4039L82.446 63.389C82.1637 63.3738 81.9235 63.2932 81.7123 63.1416L81.7115 63.1424Z" fill="#8F8F8F"/>
<path d="M83.6133 52.4497H84.3316C84.6373 52.4497 84.8761 52.4965 85.0415 52.5883C85.1933 52.6729 85.292 52.7642 85.3342 52.8591C85.3525 52.9007 85.4127 53.0988 85.4127 53.9084V61.9303C85.4127 62.7377 85.3504 62.9096 85.3384 62.9357L85.3331 62.9463C85.2726 63.0868 85.1938 63.1807 85.0924 63.2326L85.0837 63.2371C84.9029 63.3379 84.6498 63.389 84.3319 63.389H83.6135V64.3119H90.8806V63.389H90.1625C89.8565 63.389 89.6177 63.3424 89.4526 63.2504C89.299 63.165 89.1982 63.0727 89.153 62.975C89.1395 62.9458 89.0718 62.7585 89.0718 61.9301V53.9081C89.0718 53.1012 89.1342 52.9294 89.1464 52.903L89.1485 52.8991C89.2149 52.7554 89.2979 52.6594 89.4017 52.6062L89.4105 52.6014C89.5912 52.5008 89.8438 52.4495 90.1622 52.4495H90.8803V51.5269H83.6133V52.4495V52.4497Z" fill="#8F8F8F"/>
<path d="M100.703 61.2308C100.418 62.011 100.02 62.5825 99.5216 62.9286C99.1406 63.1925 98.6518 63.326 98.0688 63.326C97.1965 63.326 96.5392 63.0225 96.0597 62.3976C95.3382 61.4598 94.9722 59.9685 94.9722 57.9642C94.9722 56.2703 95.211 54.9617 95.6813 54.0745C96.2401 53.0295 97.0272 52.5217 98.0876 52.5217C98.6589 52.5217 99.1692 52.6714 99.6042 52.9657C100.038 53.2599 100.405 53.7845 100.696 54.5246C100.995 55.2868 101.147 56.4683 101.147 58.0363C101.147 59.3502 100.997 60.4252 100.703 61.231L100.703 61.2308ZM97.9748 51.3559C96.0236 51.2838 94.3536 51.884 93.012 53.1399C91.6655 54.4001 90.983 55.9963 90.983 57.8836C90.983 59.5612 91.5071 61.0318 92.5409 62.2561C93.8492 63.8054 95.7187 64.5908 98.0969 64.5908C100.471 64.5908 102.339 63.7671 103.648 62.1427C104.635 60.9195 105.135 59.4832 105.135 57.8745C105.135 55.9878 104.463 54.394 103.136 53.1365C101.813 51.8827 100.077 51.2838 97.9746 51.3559H97.9748Z" fill="#8F8F8F"/>
<path d="M114.241 51.5271V52.4548L114.541 52.4497C115.157 52.4399 115.59 52.575 115.828 52.8504C115.947 52.989 116.087 53.3258 116.087 54.1425V58.5719L110.218 51.5271H105.255V52.4409L105.541 52.4497C105.886 52.4604 106.146 52.5077 106.315 52.5905C106.431 52.6477 106.633 52.7918 106.936 53.1547L107.139 53.396V61.8947C107.139 62.4568 107.029 62.8484 106.814 63.0594C106.598 63.2698 106.16 63.3839 105.547 63.3893L105.256 63.3919V64.3121H110.375V63.3893H109.779C109.406 63.3893 109.086 63.2874 108.799 63.0775C108.545 62.8912 108.416 62.4933 108.416 61.8947V54.943L116.623 64.5907H117.374V54.1422C117.374 53.4801 117.445 53.1781 117.505 53.0422C117.583 52.8637 117.684 52.741 117.813 52.6679C117.898 52.6197 118.138 52.5274 118.792 52.4476L119.051 52.4159V51.5269H114.242L114.241 51.5271Z" fill="#8F8F8F"/>
<path d="M31.9297 8.39812C39.0495 4.12457 48.5339 1.77071 58.6359 1.77071C68.7378 1.77071 78.222 4.12457 85.3418 8.39812C92.3193 12.5871 96.1623 18.1075 96.1623 23.9427C96.1623 29.7781 92.3193 35.2985 85.3418 39.4872C78.222 43.761 68.7378 46.1146 58.6359 46.1146C48.5339 46.1146 39.0495 43.761 31.9297 39.4872C24.9522 35.2988 21.1094 29.7781 21.1094 23.9427C21.1094 18.1078 24.9522 12.5871 31.9297 8.39812ZM31.0227 41.006C34.624 43.1678 38.8112 44.8635 43.4684 46.0457C48.2744 47.266 53.3774 47.8851 58.6359 47.8851C63.8941 47.8851 68.9968 47.2663 73.8034 46.0457C78.46 44.8635 82.6478 43.1678 86.249 41.006C89.8824 38.8251 92.742 36.2751 94.7482 33.4281C96.8584 30.4333 97.9281 27.2417 97.9281 23.9424C97.9281 20.6431 96.8581 17.452 94.7482 14.4567C92.7423 11.6097 89.8824 9.06027 86.249 6.8788C82.6478 4.71729 78.46 3.0216 73.8034 1.83908C68.9968 0.619058 63.8941 0 58.6359 0C53.3777 0 48.2744 0.618792 43.4684 1.83908C38.8112 3.02186 34.624 4.71729 31.0227 6.8788C27.3891 9.06027 24.5297 11.6097 22.5236 14.4567C20.4134 17.4517 19.3434 20.6431 19.3434 23.9424C19.3434 27.2415 20.4134 30.4331 22.5236 33.4281C24.5295 36.2751 27.3891 38.8248 31.0227 41.006Z" fill="#8F8F8F"/>
</svg>
