<svg width="224" height="142" viewBox="0 0 224 142" fill="none" xmlns="http://www.w3.org/2000/svg">
<path d="M99.5837 72.4159C99.5837 80.1755 93.1998 85.8935 85.3653 85.8935C77.5308 85.8935 71.1469 80.1755 71.1469 72.4159C71.1469 64.6015 77.5308 58.9382 85.3653 58.9382C93.1998 58.9382 99.5837 64.6015 99.5837 72.4159ZM93.3596 72.4159C93.3596 67.5668 89.6596 64.2491 85.3653 64.2491C81.071 64.2491 77.371 67.5668 77.371 72.4159C77.371 77.2163 81.071 80.5826 85.3653 80.5826C89.6596 80.5826 93.3596 77.2102 93.3596 72.4159Z" fill="#8F8F8F"/>
<path d="M130.257 72.4159C130.257 80.1755 123.873 85.8935 116.039 85.8935C108.204 85.8935 101.82 80.1755 101.82 72.4159C101.82 64.6076 108.204 58.9382 116.039 58.9382C123.873 58.9382 130.257 64.6015 130.257 72.4159ZM124.033 72.4159C124.033 67.5668 120.333 64.2491 116.039 64.2491C111.744 64.2491 108.044 67.5668 108.044 72.4159C108.044 77.2163 111.744 80.5826 116.039 80.5826C120.333 80.5826 124.033 77.2102 124.033 72.4159Z" fill="#8F8F8F"/>
<path d="M159.652 59.7525V83.949C159.652 93.9023 153.479 97.9675 146.182 97.9675C139.312 97.9675 135.178 93.5985 133.618 90.0255L139.037 87.8805C140.002 90.0741 142.367 92.6627 146.175 92.6627C150.847 92.6627 153.741 89.9222 153.741 84.7633V82.8249H153.524C152.131 84.4594 149.447 85.8874 146.06 85.8874C138.973 85.8874 132.481 80.0175 132.481 72.4645C132.481 64.8567 138.973 58.9382 146.06 58.9382C149.441 58.9382 152.125 60.3662 153.524 61.9522H153.741V59.7586H159.652V59.7525ZM154.182 72.4645C154.182 67.7187 150.853 64.2491 146.616 64.2491C142.322 64.2491 138.724 67.7187 138.724 72.4645C138.724 77.1616 142.322 80.5826 146.616 80.5826C150.853 80.5826 154.182 77.1616 154.182 72.4645Z" fill="#8F8F8F"/>
<path d="M169.398 45.5699V85.0671H163.327V45.5699H169.398Z" fill="#8F8F8F"/>
<path d="M193.054 76.8517L197.885 79.9142C196.326 82.1078 192.569 85.8874 186.076 85.8874C178.024 85.8874 172.011 79.9689 172.011 72.4098C172.011 64.3949 178.076 58.9321 185.38 58.9321C192.735 58.9321 196.333 64.4982 197.508 67.506L198.154 69.0373L179.207 76.4992C180.657 79.2033 182.913 80.5826 186.076 80.5826C189.246 80.5826 191.444 79.1 193.054 76.8517ZM178.184 72.0026L190.85 67.0017C190.153 65.3185 188.057 64.1457 185.591 64.1457C182.427 64.1457 178.024 66.8012 178.184 72.0026Z" fill="#8F8F8F"/>
<path d="M48.1674 68.9097V63.1917H68.431C68.6291 64.1883 68.7314 65.3671 68.7314 66.6432C68.7314 70.9332 67.498 76.2379 63.5233 80.0175C59.6572 83.8457 54.7175 85.8874 48.1738 85.8874C36.0451 85.8874 25.8462 76.4931 25.8462 64.96C25.8462 53.4268 36.0451 44.0326 48.1738 44.0326C54.8836 44.0326 59.6636 46.5361 63.2549 49.7992L59.0117 53.834C56.4365 51.537 52.9474 49.7506 48.1674 49.7506C39.3105 49.7506 32.3834 56.538 32.3834 64.96C32.3834 73.382 39.3105 80.1694 48.1674 80.1694C53.9123 80.1694 57.1841 77.9758 59.2801 75.9827C60.98 74.3664 62.0983 72.0573 62.5392 68.9036L48.1674 68.9097Z" fill="#8F8F8F"/>
</svg>
