<svg width="223" height="29" viewBox="0 0 223 29" fill="none" xmlns="http://www.w3.org/2000/svg">
<path d="M178.949 0.99347C173.503 0.819157 167.614 3.84049 164.821 9.52657C163.088 12.7357 161.766 16.3093 160.887 19.8165C160.807 20.1267 160.735 20.4367 160.666 20.7452C160.578 21.2437 160.571 21.8837 160.618 22.5374C160.833 25.2985 163.378 28.6363 167.571 28.8264H170.406H170.437H172.545C177.99 29.0007 183.876 25.9792 186.671 20.2931C188.404 17.0823 189.726 13.5059 190.605 10.0006C190.683 9.68848 190.758 9.37848 190.825 9.07169C190.916 8.57148 190.922 7.93322 190.873 7.27961C190.658 4.51668 188.114 1.18173 183.921 0.99347H181.052H178.949ZM85.5667 1.2495L87.7937 28.5567H89.1786H91.971H92.2593C92.252 28.5553 92.241 28.5567 92.2338 28.5567C92.2646 28.5567 92.2953 28.5567 92.3242 28.5567H92.4966C93.3848 28.5302 94.1781 28.0834 94.6502 27.4019H94.6531L112.86 1.2495H108.151L95.1082 20.0208L93.5792 1.2495H85.5667ZM116.113 1.2495L105.664 28.5567H113.685L124.131 1.2495H116.113ZM134.933 1.2495C127.729 1.33457 124.545 9.0583 128.481 14.007C130.478 16.3567 133.329 18.7933 134.939 21.3662C135.959 22.7572 134.868 25.0777 132.918 25.1004H128.958H120.197L118.88 28.5567H134.987C141.3 28.5385 145.571 21.3752 141.335 15.8809C139.379 13.0971 136.278 11.1973 134.444 8.47805C133.353 7.05914 134.45 4.73018 136.42 4.70578H140.504H148.259L149.579 1.2495H134.933ZM155.13 1.2495L144.687 28.5567H152.705L163.151 1.2495H155.13ZM198.422 1.2495L187.931 28.5567H192.063L199.293 9.73631L199.33 10.0741L205.824 26.977C206.213 27.866 207.107 28.5026 208.156 28.5567H211.935L222.429 1.2495H218.297L211.206 19.7048L203.657 1.2495H202.554H198.422ZM180.781 3.8179C182.293 3.92946 183.494 5.15536 183.494 6.64232C183.506 7.00838 183.44 7.36956 183.299 7.69908L178 21.6059C176.931 24.2747 174.446 25.91 171.494 25.9937H170.711C169.199 25.8821 167.998 24.6562 167.998 23.1693C167.986 22.8032 168.053 22.4376 168.195 22.1099L173.492 8.20291C174.563 5.53411 177.048 3.90254 180.004 3.82055H180.781V3.8179Z" fill="#8F8F8F"/>
<path d="M11.2412 1.24955L0.79248 28.5567H9.30802L14.3049 15.4969H24.4427L19.4458 28.5567H26.0989C27.224 28.5567 28.1907 27.8723 28.5832 26.9171C28.5875 26.9031 28.5919 26.8989 28.5976 26.892L38.4076 1.24885H29.8921L25.8703 11.7621H15.7325L19.7542 1.24885L11.2412 1.24955ZM43.8196 1.24955L33.3737 28.5567H41.8864L52.3323 1.24955H52.0864H44.0683H43.8196ZM58.1262 1.24955L47.6803 28.5567H56.193L60.1978 18.0843L62.326 16.51L67.9729 27.0614L67.9758 27.0474C67.983 27.0614 67.9859 27.0656 67.9902 27.0725C68.4533 27.9982 69.47 28.6084 70.5932 28.5352C70.5734 28.5352 70.5517 28.5492 70.5283 28.5492H77.7579L68.7647 11.7443L82.9497 1.24731H76.5878L62.7108 11.5155L66.6393 1.24731H58.1266L58.1262 1.24955Z" fill="#8F8F8F"/>
</svg>
