<svg width="140" height="35" viewBox="0 0 140 35" fill="none" xmlns="http://www.w3.org/2000/svg">
<path fill-rule="evenodd" clip-rule="evenodd" d="M93.7815 4.93368C99.7899 4.93368 104.173 7.74057 106.207 12.8374C106.444 13.4301 106.72 14.5218 106.987 15.0764H81.9523C83.2993 9.31489 87.8415 4.93411 93.7815 4.93411V4.93368ZM77.0004 16.1728C77.0004 22.5279 77.8601 25.611 82.4324 30.2227C84.6059 32.415 87.3924 33.8124 90.4698 34.549C96.6467 36.0283 103.993 33.8069 107.817 28.7879C108.567 27.8042 110.165 25.8659 110.288 24.3965H105.061C100.526 31.1434 91.9982 31.9542 86.1081 27.1078C84.0102 25.3819 82.6688 23.077 81.9518 20.0105H111.663C113.818 10.795 105.35 0 94.6063 0C89.7074 0 85.0426 2.23001 82.5682 4.72597C79.5806 7.73971 77 11.4344 77 16.1728H77.0004Z" fill="#8F8F8F"/>
<path fill-rule="evenodd" clip-rule="evenodd" d="M0 35H4.68507V8.65583C5.48593 9.19524 15.1575 23.7007 15.433 24.7396H19.567C19.827 23.7596 29.6432 9.22513 30.0394 8.93312V35H35L34.7244 0.0591538C28.9883 0.0591538 30.7451 -0.866716 27.1184 4.60748L19.9187 15.3878C19.3314 16.2071 18.1555 18.3313 17.3624 18.9162L5.54191 1.1384C4.62522 -0.326445 5.54449 0.0591538 0.000430573 0.0591538V35H0Z" fill="#8F8F8F"/>
<path fill-rule="evenodd" clip-rule="evenodd" d="M57.4422 30.2833H55.5156C49.8834 30.2833 43.9553 24.5453 43.9553 18.9088C43.9553 16.1513 43.868 14.3555 45.1418 11.7822C50.4941 0.967735 67.8895 2.80163 69.1672 17.0819C69.4815 20.5949 67.6122 24.1929 65.9195 26.0663L64.395 27.5816C62.708 29.0063 59.7739 30.2837 57.4426 30.2837L57.4422 30.2833ZM39.0004 17.7992C39.0004 26.941 46.9484 35 55.24 35C58.9731 35 60.7092 35.0156 64.2355 33.2471C65.7522 32.4865 68.1454 30.9235 69.168 29.6184C73.4439 24.1609 75.6848 17.5344 72.4922 10.6751C68.0646 1.16148 57.9694 -2.52929 48.7206 1.79605C43.5021 4.23633 39 10.5845 39 17.7992H39.0004Z" fill="#8F8F8F"/>
<path fill-rule="evenodd" clip-rule="evenodd" d="M117.831 30.2778H117V35C132.074 35 126.226 18.3532 131.625 9.6605C133.485 6.66514 136.149 5.34409 140 4.44444V0C136.62 0 132.467 2.02193 130.532 3.56388C127.876 5.67869 126.686 7.94973 125.481 11.5566C123.189 18.4153 125.01 30.2774 117.831 30.2774V30.2778Z" fill="#8F8F8F"/>
</svg>
