<svg width="200" height="59" viewBox="0 0 200 59" fill="none" xmlns="http://www.w3.org/2000/svg">
<path fill-rule="evenodd" clip-rule="evenodd" d="M194.81 24.153C194.517 24.3828 194.366 24.3382 193.933 24.2994C193.518 23.7157 193.616 23.8566 193.193 23.4938L192.985 23.2907C192.828 23.1323 192.973 23.2961 192.825 23.1222L192.477 22.7345C192.357 22.615 192.363 22.6249 192.268 22.5353L191.121 21.3805C191.046 21.3018 191.044 21.2964 190.961 21.213L189.59 19.8804C189.573 19.8631 189.524 19.8139 189.508 19.7962L188.275 18.5718C188.263 18.56 188.244 18.5443 188.232 18.5325L188.003 18.0924L187.777 17.9237C187.32 18.4161 187.546 21.017 187.546 21.9393L187.55 32.4367C187.555 33.2863 187.43 33.1251 187.332 33.2961C187.019 33.8439 187.512 33.5986 186.55 34.3289C186.06 34.7015 185.205 34.6437 184.67 34.3124C183.833 33.7937 182.751 32.5547 182.008 31.808C181.805 31.6036 178.183 27.873 177.915 27.8172C177.447 27.7198 177.689 28.5573 177.694 28.9051C177.756 33.2449 177.691 38.0536 177.691 42.4364C177.69 44.049 177.986 44.4563 177.046 45.2318L176.956 45.3051C176.643 45.5477 176.166 45.6084 175.952 45.3061C175.441 45.2933 175.09 45.1494 174.771 44.8683C174.703 44.809 174.701 44.8083 174.641 44.752L167.939 38.0093C167.243 37.8133 167.447 39.1095 167.447 39.4851V53.5302C168.105 53.7479 167.699 54.4273 167.177 54.8776C166.39 55.5568 165.652 55.6935 164.771 55.0321C164.549 54.8653 164.374 54.645 164.192 54.4642L162.421 52.7102C161.679 51.992 162.06 52.0458 161.694 51.7177L160.337 50.45C160.326 50.4375 160.313 50.4173 160.302 50.4048L160.229 50.3169C160.143 50.2245 160.209 50.2975 160.103 50.1967L158.977 49.0182C158.845 48.8439 158.589 48.73 158.346 48.6616C158.189 50.2171 158.357 52.8307 158.281 54.7697C158.252 55.4889 158.925 55.4097 159.198 55.6082C159.981 56.1766 159.253 55.5113 160.08 56.0366C160.095 56.0465 160.113 56.0617 160.13 56.0706C160.532 56.2836 160.4 55.9796 160.989 56.3603C161.459 56.6639 161.562 56.3527 161.961 56.6191C162.367 56.8892 161.761 56.7189 162.429 56.8365C163.537 57.0323 162.866 56.9962 163.358 57.1258C163.822 57.248 163.881 57.111 164.35 57.3398C165.248 57.7786 165.493 57.3351 166.404 57.7515C166.631 57.8553 166.816 57.8145 167.368 57.8605C167.904 57.905 168.215 57.6935 168.261 58.2609C169.588 58.2609 173.865 58.4193 174.946 58.0536C175.341 57.9198 175.518 57.9741 175.928 57.8878C176.367 57.7953 176.408 57.6585 176.879 57.6091L178.741 57.1757C178.95 57.1137 178.958 57.0648 179.135 56.9959C179.264 56.9457 179.506 56.9093 179.599 56.8862C180.064 56.7716 179.777 56.7347 180.447 56.5864C180.929 56.4799 182.901 55.5742 183.477 55.2712L185.54 54.137C185.671 54.0765 185.58 54.127 185.704 54.0546L187.931 52.5112C188.379 52.1504 188.81 51.8004 189.254 51.4565L191.212 49.6432C191.224 49.6314 191.241 49.6145 191.253 49.6024L192.826 47.8137C192.964 47.6507 192.878 47.7601 192.985 47.645L195.178 44.5911C195.3 44.3591 195.226 44.4462 195.378 44.2167L196.212 42.755C196.315 42.5279 196.298 42.5951 196.411 42.3808L197.495 39.9391C197.814 39.0824 198.066 38.4139 198.281 37.5277C198.353 37.2286 198.276 37.491 198.37 37.2889L198.87 35.4933C198.925 35.2146 198.925 34.7795 199.005 34.4807C199.107 34.1002 199.153 33.9479 199.222 33.4673C199.35 32.5646 199.252 28.1281 199.254 26.6129C199.256 25.6556 199.194 25.2358 199.006 24.4839C198.927 24.1705 198.927 23.7592 198.87 23.4717L198.379 21.6666C198.157 21.1471 198.301 21.0836 198.112 20.7041C197.759 19.9923 198.002 20.3145 197.824 19.8447L197.516 19.0045C197.447 18.7922 197.417 18.805 197.328 18.619C197.157 18.2609 197.231 17.7766 196.549 17.5943C196.177 18.3686 196.385 20.4284 196.385 21.5298C196.385 22.1218 196.51 23.0563 196.238 23.4331C195.874 23.9388 195.51 24.1533 194.809 24.1533L194.81 24.153ZM141.706 30.1332C142.081 30.1524 142.081 30.1497 142.109 30.5403C142.128 30.8074 142.106 31.0802 142.074 31.3436C142.025 31.7482 142.164 32.2261 142.159 32.8445C142.151 33.8365 142.449 33.4926 142.485 34.1535C142.499 34.4197 142.486 34.7109 142.496 34.9812C142.528 35.8153 142.793 35.3684 142.835 36.3724C142.859 36.9536 142.862 36.6543 143.064 36.9755C143.257 37.283 143.132 37.3213 143.183 37.6799C143.261 38.2348 143.335 37.769 143.49 38.2757C143.581 38.5743 143.496 38.6353 143.649 38.9292C143.857 39.3267 143.739 39.0977 143.889 39.6088C143.993 39.9623 144.066 39.797 144.155 40.16C144.261 40.5895 144.092 40.5386 144.331 40.8652C144.797 40.5068 144.546 38.8072 144.546 38.0912C144.546 37.4045 144.368 34.8304 144.675 34.3355L144.924 33.848C145.179 33.2304 145.697 33.3903 146.093 33.1264C146.58 32.8017 146.693 33.1414 147.126 33.2511C147.849 33.4341 148.137 33.912 148.646 34.4317L150.986 36.7627C151.48 37.2465 152.034 37.8268 152.539 38.3254L153.594 39.5709C153.8 39.7854 153.731 39.8816 154.115 39.7608C154.255 39.4108 154.251 27.2554 154.19 24.9714C154.164 23.9961 154.047 24.0436 154.619 23.4562C154.694 23.3787 154.668 23.4146 154.744 23.3347C155.162 22.9006 155.16 23.1244 155.637 22.9153C156.109 22.7087 156.373 22.9264 156.825 23.0612C157.251 23.1884 157.577 23.5482 157.889 23.8712C157.9 23.883 157.917 23.9014 157.928 23.9135C157.94 23.9258 157.957 23.9435 157.968 23.9558L160.135 26.1395C160.357 26.3498 160.46 26.3958 160.697 26.6368L161.064 27.0087C161.076 27.0205 161.094 27.0375 161.106 27.0493L162.678 28.6872C162.693 28.6985 162.713 28.7125 162.727 28.7233L163.403 29.3459C163.684 29.6482 163.573 29.7382 164.063 29.7864C164.077 28.9181 164.165 14.8595 164.035 13.8345C163.955 13.2066 164.108 13.073 164.588 12.6064C165.214 11.9979 165.38 12.0525 166.22 12.066C166.862 12.0763 166.961 12.1688 167.339 12.5343L169.969 15.1617C170.041 15.224 170.033 15.2173 170.089 15.2749L170.206 15.4033C170.218 15.4158 170.236 15.4333 170.248 15.4461L170.376 15.5681C170.436 15.6276 170.452 15.6468 170.495 15.6913L171.149 16.3485C171.162 16.3608 171.178 16.3788 171.19 16.3911C171.203 16.4034 171.22 16.4211 171.232 16.4334C171.245 16.4457 171.263 16.4629 171.275 16.475L173.115 18.3849C173.458 18.7442 173.052 18.5603 173.575 18.6377C174.014 17.4893 173.324 5.05008 173.772 3.89527C173.791 3.84755 173.84 3.69579 173.854 3.64316C174.045 2.92567 174.959 2.17621 175.326 2.59017H175.979C176.578 2.21876 177.534 3.36128 177.966 3.79491L182.55 8.39227C182.844 8.70588 182.806 8.65053 182.941 8.65791C183.328 8.67882 183.211 8.13548 183.21 7.5095L183.191 3.90191C183.041 3.68989 182.886 3.5733 182.606 3.49705C181.768 3.2688 182.49 3.33521 181.869 3.16697C181.029 2.9392 181.708 3.00118 181.201 2.85213C181.007 2.79482 181.015 2.86344 180.789 2.77169C180.515 2.66003 180.668 2.63272 180.443 2.54221C179.993 2.36093 180.157 2.63937 179.698 2.30879C179.519 2.17941 179.822 2.22393 179.336 2.16244C179.135 2.1371 179.013 2.17891 178.811 2.11176C178.338 1.95508 178.814 1.87442 178.033 1.81416C177.298 1.75734 177.493 1.66805 177.367 1.47103C175.206 1.43684 176.349 1.26441 174.485 1.04747C173.482 0.930635 173.813 1.21424 173.114 0.949827C172.604 0.75699 172.01 1.04354 171.956 0.376479C171.004 0.376479 169.051 0.287933 168.325 0.433791C167.994 0.499956 167.888 0.554308 167.607 0.618013C167.132 0.725992 166.455 0.713942 165.995 0.891038C165.581 1.05042 165.67 0.996067 165.167 1.04674C164.988 1.06469 164.592 1.10405 164.391 1.17267C163.524 1.46956 163.396 1.3601 162.92 1.58737C162.525 1.77627 162.608 1.67592 162.137 1.78808L159.371 2.79284C158.947 2.94067 158.533 3.18246 158.143 3.36816L155.126 5.02475C154.998 5.11452 154.943 5.14183 154.831 5.22128L152.505 6.91303C152.492 6.92385 152.474 6.93909 152.46 6.95016L152.373 7.02667C152.242 7.13858 152.299 7.09282 152.145 7.20892L148.421 10.9449C148.333 11.0455 148.286 11.0974 148.193 11.2093L143.925 18.2545L142.542 22.4468C142.375 22.8607 142.398 23.3696 142.335 23.6338C142.18 24.2768 142.26 23.5534 142.081 24.8558L141.88 26.0487C141.722 26.7635 141.707 29.4172 141.707 30.1335L141.706 30.1332ZM177.202 8.82123V21.6934C177.202 21.9957 177.243 22.1386 177.402 22.3137C177.418 22.3314 177.47 22.3754 177.487 22.3922L177.889 22.8103C177.952 22.8733 177.954 22.877 178.011 22.9343C178.093 23.0167 178.127 23.0482 178.217 23.1384L179.659 24.5655C179.747 24.6624 179.742 24.6642 179.856 24.7793L183.185 28.0905C183.197 28.1025 183.214 28.1195 183.226 28.1315L183.389 28.2968C183.557 28.4589 183.386 28.499 183.76 28.499C184.082 28.499 184.123 28.2127 184.082 27.8612C183.828 25.6812 184.128 15.6517 184.006 15.0592C183.925 14.6634 183.899 14.6024 183.639 14.3542L178.184 8.9051C178.069 8.78359 178.094 8.7809 177.952 8.64586C177.597 8.3111 177.587 8.348 177.366 8.32979C177.281 8.4909 177.202 8.57158 177.202 8.82173L177.202 8.82123ZM167.698 19.4797L167.698 32.2699C167.698 33.1795 168.071 33.2912 169.006 34.2352C169.946 35.1839 172.804 37.9525 173.498 38.7678C173.704 39.0099 173.638 39.0485 173.983 38.9705L173.988 25.4648C173.988 24.3424 173.895 24.5018 172.661 23.2858L169.089 19.7229C169.077 19.7109 169.06 19.6932 169.048 19.6811L168.271 18.8987C167.597 18.258 167.698 18.6864 167.698 19.4794V19.4797ZM158.112 43.5044L158.181 43.5804C158.52 43.6279 158.303 43.5551 158.549 43.7922L159.002 44.2413C159.166 44.4179 159.129 44.2347 159.173 44.567C159.476 44.6076 159.924 45.143 160.154 45.3841C160.437 45.6807 160.527 45.6746 160.562 45.9557C160.838 45.9904 160.878 45.9916 160.892 46.2861C161.204 46.3234 161.031 46.2715 161.297 46.5396L162.079 47.3139C162.391 47.6121 162.567 47.6708 162.611 48.0056C162.885 48.043 162.928 48.0445 162.943 48.3377C163.217 48.3716 163.259 48.3738 163.271 48.6677C163.564 48.7364 163.573 48.6842 163.585 48.9956L163.676 49.0891C163.94 49.0374 163.755 49.1075 163.922 49.0163C164.145 47.3973 163.996 38.5681 164.014 36.1232C164.023 34.9069 164.003 35.2205 162.824 34.0241L158.026 29.2389C157.725 29.9313 157.888 39.6757 157.882 41.945C157.878 43.6813 158.019 42.9412 158.112 43.5047V43.5044ZM147.936 39.567V46.8641C147.936 47.3432 148.208 47.7139 148.459 47.9808L152.155 51.6634L154.021 53.0764C154.421 53.4375 154.904 53.5723 154.904 52.6853V46.0443C154.904 45.2127 153.434 44.1006 152.804 43.4717L148.879 39.5259C148.56 39.2003 148.611 39.1944 148.1 39.0753C148.015 39.2364 147.936 39.3171 147.936 39.5672L147.936 39.567ZM186.466 11.8577C186.699 11.8778 186.608 11.8604 186.796 12.0134C186.809 12.024 186.825 12.0424 186.838 12.0535L188.302 13.5443C188.314 13.5561 188.332 13.5726 188.345 13.5844L188.721 13.944C188.733 13.9553 188.752 13.9715 188.764 13.9831C188.805 14.0202 188.852 14.0674 188.89 14.1041C188.986 14.1941 189.038 14.2376 189.101 14.3045L189.375 14.6017C189.387 14.6137 189.405 14.6305 189.417 14.6425L191.745 16.9858C191.757 16.9976 191.775 17.0141 191.787 17.0259L192.86 18.1411C193.239 17.7685 193.102 17.0559 193.102 16.3643L193.104 12.1809C193.105 11.6926 193.159 11.6088 192.893 11.3298C192.378 10.7892 192.481 11.1348 192.419 10.7071C192.398 10.4392 192.192 10.2948 191.844 9.91947L191.57 9.61988C191.426 9.46935 191.346 9.4054 191.19 9.26175L190.82 8.89379C190.808 8.88198 190.791 8.86477 190.779 8.85297L190.698 8.77031C190.617 8.68816 190.616 8.68718 190.534 8.60625L190.202 8.28281C189.708 7.83761 189.153 7.24066 188.583 6.86777C188.569 6.85794 188.547 6.84687 188.532 6.83703C188.518 6.82719 188.497 6.81464 188.483 6.80431C188.362 6.71527 188.406 6.7379 188.351 6.69018L187.558 6.08928C187.344 5.91858 187.455 5.95868 187.174 5.81848C186.842 5.65319 186.907 5.64679 186.631 5.62392C186.303 6.30696 186.466 10.7548 186.466 11.8577H186.466ZM141.706 30.1335C141.706 30.8345 141.79 31.2088 141.786 31.8619C141.783 32.5392 142.011 32.8506 142.035 33.4985C142.051 33.9056 142.085 33.9636 142.113 34.3232L142.631 36.593C142.718 36.8501 142.725 37.054 142.791 37.3349C142.853 37.6057 142.945 37.7358 143.029 37.9982L144.118 41.0086C144.225 41.4312 144.346 41.67 144.821 41.7807C145.145 41.1067 144.985 36.7947 144.985 35.7134C144.985 35.2591 144.887 34.597 145.039 34.2098C145.369 33.3731 146.676 32.8917 147.773 33.9909C147.853 34.0706 147.882 34.1016 147.976 34.1976L153.152 39.352C153.164 39.3638 153.181 39.3813 153.193 39.3931C153.204 39.4049 153.222 39.4219 153.234 39.4337C153.328 39.5274 153.356 39.5562 153.439 39.6391C153.45 39.6509 153.468 39.6681 153.48 39.6799C153.665 39.8666 154.092 40.4571 154.412 40.1408C154.809 39.7498 154.219 24.8198 154.575 23.9873C154.868 23.301 155.956 22.8814 156.563 23.2317C157.415 23.7224 157.382 23.8569 158.092 24.5727L160.058 26.5416C160.07 26.5534 160.087 26.5706 160.099 26.5824L162.571 29.0298C162.772 29.2288 162.921 29.3865 163.102 29.5645C163.319 29.778 163.958 30.6397 164.25 30.4665C164.552 30.2867 164.414 28.9051 164.414 28.4988C164.414 25.986 164.266 13.8611 164.505 13.3404C164.884 12.5154 165.69 12.2404 166.567 12.4886C167.011 12.6143 167.253 12.9923 167.56 13.2998L169.24 14.981C169.252 14.9928 169.269 15.0097 169.281 15.0215L170.192 15.9142C170.315 16.0364 170.377 16.1006 170.479 16.2014L173.648 19.337C173.869 19.4012 174.002 19.3314 174.074 19.0574C174.178 18.6641 174.087 6.9482 174.087 5.95179C174.087 4.01235 173.846 3.4786 175.165 2.68265C175.18 2.67355 175.203 2.65929 175.217 2.65117L175.326 2.59017C174.959 2.17621 174.045 2.92567 173.854 3.64316C173.84 3.69604 173.791 3.84755 173.772 3.89527C173.324 5.05008 174.014 17.4896 173.574 18.6377C173.052 18.5605 173.458 18.7442 173.115 18.3849L171.275 16.475C171.262 16.4629 171.245 16.4457 171.232 16.4334C171.22 16.4211 171.202 16.4034 171.19 16.3911C171.178 16.3788 171.161 16.3608 171.149 16.3485L170.495 15.6913C170.452 15.6468 170.436 15.6276 170.375 15.5681L170.248 15.4461C170.235 15.4335 170.218 15.4161 170.206 15.4033L170.089 15.2749C170.032 15.2173 170.041 15.224 169.969 15.1617L167.339 12.5343C166.961 12.1686 166.862 12.0761 166.22 12.066C165.38 12.0525 165.214 11.9979 164.587 12.6064C164.108 13.0728 163.955 13.2066 164.035 13.8345C164.165 14.8597 164.077 28.9181 164.063 29.7864C163.573 29.7382 163.684 29.6482 163.402 29.3459L162.727 28.7233C162.713 28.7125 162.693 28.6985 162.678 28.6872L161.106 27.0493C161.094 27.0375 161.076 27.0205 161.064 27.0087L160.696 26.6368C160.46 26.3958 160.357 26.3498 160.134 26.1395L157.968 23.9558C157.956 23.9435 157.939 23.9258 157.928 23.9135C157.916 23.9014 157.9 23.883 157.888 23.8712C157.577 23.5482 157.25 23.1881 156.825 23.0612C156.373 22.9264 156.109 22.7087 155.637 22.9153C155.159 23.1244 155.162 22.9006 154.744 23.3347C154.667 23.4146 154.694 23.3787 154.618 23.4562C154.047 24.0436 154.164 23.9964 154.19 24.9714C154.251 27.2554 154.255 39.4108 154.115 39.7608C153.731 39.8816 153.8 39.7854 153.593 39.5709L152.538 38.3254C152.033 37.8268 151.48 37.2463 150.986 36.7627L148.646 34.4317C148.136 33.9122 147.848 33.4341 147.126 33.2511C146.693 33.1414 146.58 32.8017 146.093 33.1264C145.696 33.3903 145.179 33.2304 144.924 33.848L144.675 34.3355C144.367 34.8302 144.546 37.4045 144.546 38.0912C144.546 38.8072 144.796 40.5066 144.331 40.8652C144.091 40.5386 144.261 40.5895 144.155 40.16C144.066 39.797 143.993 39.9623 143.889 39.6088C143.738 39.0977 143.856 39.3267 143.649 38.9292C143.495 38.6353 143.58 38.5743 143.489 38.2757C143.335 37.769 143.26 38.2346 143.183 37.6799C143.132 37.3213 143.257 37.283 143.063 36.9755C142.862 36.6543 142.859 36.9536 142.834 36.3724C142.793 35.3684 142.528 35.8153 142.496 34.9812C142.486 34.7109 142.499 34.4197 142.485 34.1535C142.448 33.4926 142.151 33.8365 142.159 32.8445C142.163 32.2261 142.025 31.7482 142.074 31.3436C142.106 31.0804 142.128 30.8074 142.109 30.5403C142.081 30.1494 142.081 30.1524 141.706 30.1332L141.706 30.1335ZM175.953 45.3064C176.166 45.6089 176.643 45.5479 176.957 45.3054L177.047 45.2321C177.986 44.4568 177.691 44.0495 177.691 42.4367C177.692 38.0538 177.757 33.2452 177.694 28.9054C177.689 28.5578 177.447 27.72 177.915 27.8174C178.184 27.8733 181.806 31.6038 182.009 31.8082C182.751 32.555 183.834 33.7937 184.671 34.3127C185.206 34.644 186.06 34.7018 186.551 34.3291C187.512 33.5989 187.019 33.8441 187.333 33.2963C187.431 33.1256 187.555 33.2865 187.551 32.4369L187.547 21.9396C187.547 21.0172 187.321 18.4164 187.778 17.9239L188.004 18.0927L188.233 18.5327C188.244 18.5445 188.263 18.5603 188.275 18.5721L189.508 19.7965C189.525 19.8142 189.573 19.8634 189.59 19.8806L190.961 21.2133C191.045 21.2966 191.047 21.3023 191.122 21.3808L192.269 22.5356C192.363 22.6251 192.358 22.6153 192.478 22.7348L192.825 23.1224C192.973 23.2966 192.828 23.1328 192.986 23.2909L193.194 23.4941C193.617 23.8566 193.518 23.716 193.933 24.2996C194.367 24.3383 194.517 24.383 194.81 24.1533C194.425 24.1179 194.104 23.9897 193.833 23.7548L193.567 23.5288C193.555 23.5172 193.537 23.5005 193.525 23.4887L192.343 22.2935C192.331 22.2822 192.312 22.2665 192.3 22.2552C192.287 22.2438 192.269 22.2279 192.256 22.2165L188.631 18.5457C188.368 18.285 188.29 18.1507 188.004 18.0929L188.028 17.8408C187.735 17.6873 187.658 17.5434 187.286 17.5124C186.926 18.2626 187.122 20.2146 187.122 21.2838V33.3362C187.117 33.3524 186.566 34.1858 185.892 34.2386C185.563 34.2645 185.134 34.2497 184.918 34.1476L183.319 32.7129C183.251 32.6467 183.235 32.6241 183.157 32.5464C183.113 32.5019 183.053 32.4468 183.032 32.4256L182.911 32.3012C182.798 32.1799 182.75 32.1209 182.639 31.9986L182.07 31.4201C181.856 31.2216 181.732 31.091 181.527 30.8977L178.892 28.2855C178.694 28.0841 178.19 27.4077 177.968 27.3203C177.559 27.159 177.852 27.3511 177.531 27.3511L177.531 43.1753C177.535 43.7929 177.556 43.8296 177.382 44.2558C177.104 44.9377 176.823 45.2407 175.953 45.3064H175.953ZM167.698 19.4799C167.698 18.6869 167.597 18.2585 168.271 18.8992L169.048 19.6816C169.06 19.6937 169.077 19.7114 169.089 19.7234L172.661 23.2863C173.895 24.5021 173.988 24.3429 173.988 25.4653L173.983 38.971C173.638 39.049 173.704 39.0104 173.498 38.7683C172.804 37.953 169.946 35.1844 169.006 34.2357C168.071 33.2917 167.698 33.18 167.698 32.2704L167.698 19.4802V19.4799ZM167.447 18.4961V32.598C167.447 33.1576 167.744 33.4338 168.04 33.7263L173.846 39.4952C174.056 39.5997 174.333 39.5574 174.333 39.2391V24.6452C174.333 24.3769 171.862 22.0245 171.617 21.7871C171.604 21.7753 171.588 21.7576 171.576 21.7458L171.084 21.2538C171.072 21.2418 171.055 21.2253 171.043 21.2133L168.594 18.7433C168 18.152 168.198 18.1682 167.775 18.1682C167.583 18.1682 167.447 18.3042 167.447 18.4961ZM158.112 43.5047L158.181 43.5807L159.173 44.5672L160.562 45.956L160.892 46.2863L162.612 48.0058L162.943 48.3379C163.053 48.4488 163.135 48.5721 163.271 48.668L163.585 48.9959C163.574 48.6845 163.564 48.7364 163.271 48.668C163.259 48.3741 163.217 48.3718 162.943 48.3379C162.928 48.0447 162.886 48.0432 162.612 48.0058C162.567 47.6711 162.391 47.6123 162.079 47.3142L161.297 46.5399C161.031 46.2718 161.205 46.3239 160.892 46.2863C160.879 45.9921 160.838 45.9906 160.562 45.956C160.527 45.6748 160.437 45.681 160.154 45.3843C159.924 45.1433 159.477 44.6078 159.173 44.5672C159.129 44.2349 159.166 44.4182 159.002 44.2416L158.549 43.7924C158.304 43.5553 158.52 43.6279 158.181 43.5807L158.112 43.5047C158.019 42.9412 157.878 43.6813 157.883 41.945C157.888 39.6757 157.725 29.9313 158.026 29.2389L162.824 34.0241C164.003 35.2208 164.024 34.9069 164.014 36.1232C163.996 38.5681 164.145 47.3973 163.923 49.0163C163.755 49.1078 163.94 49.0374 163.676 49.0891C163.902 49.3963 163.834 49.3237 164.332 49.3237C164.544 48.4144 164.401 38.3701 164.415 36.2051C164.423 34.9768 164.228 35.1214 163.183 34.0753L158.564 29.4307C158.256 29.1002 157.529 28.3807 157.519 29.3911C157.515 29.8248 157.528 30.2754 157.528 30.7125L157.534 42.677C157.581 43.0098 157.868 43.3497 158.113 43.5047H158.112ZM168.261 58.2607C168.215 57.6932 167.904 57.905 167.368 57.8602C166.816 57.8142 166.631 57.8553 166.404 57.7513C165.493 57.3346 165.249 57.7781 164.35 57.3395C163.881 57.1105 163.822 57.2478 163.358 57.1255C162.867 56.9959 163.538 57.0321 162.429 56.8363C161.761 56.7187 162.367 56.8892 161.962 56.6188C161.562 56.3525 161.459 56.6636 160.99 56.3601C160.401 55.9793 160.533 56.2836 160.13 56.0703C160.113 56.0615 160.095 56.0462 160.08 56.0364C159.253 55.511 159.981 56.1763 159.198 55.6079C158.925 55.4097 158.252 55.4889 158.281 54.7694C158.358 52.8305 158.19 50.2166 158.346 48.6613C158.589 48.7295 158.846 48.8436 158.977 49.018L160.103 50.1964C160.209 50.2975 160.143 50.2242 160.229 50.3167L160.302 50.4045C160.313 50.417 160.327 50.4372 160.337 50.4498L161.694 51.7175C162.061 52.0456 161.679 51.9917 162.421 52.7099L164.192 54.4639C164.374 54.6447 164.549 54.8651 164.771 55.0319C165.653 55.6933 166.39 55.5565 167.177 54.8774C167.699 54.427 168.105 53.7477 167.447 53.53C167.447 54.1764 167.235 54.6435 166.672 54.9433C165.95 55.3278 165.171 55.0083 164.66 54.4883L159.352 49.2207C158.634 48.5056 158.591 48.2575 158.019 48.2575C157.726 48.8121 157.911 48.7083 157.902 49.2305L157.855 53.0949C157.855 53.8675 157.716 54.9787 158.104 55.3878C158.452 55.7553 159.774 56.183 160.274 56.4149C160.764 56.642 160.786 56.5224 161.252 56.7492C161.477 56.8589 161.442 56.8584 161.743 56.9138C162.674 57.0849 162.122 57.1009 162.738 57.2301C163.771 57.4465 163.218 57.3722 163.753 57.5269C164.149 57.6413 164.456 57.5579 164.873 57.719L167.01 58.2043C167.305 58.2535 167.838 58.2602 168.261 58.2602L168.261 58.2607ZM175.979 2.59041C176.578 3.02971 176.427 2.75693 177.182 3.51279L182.592 8.92479C183.486 9.84863 183.44 9.05416 183.433 8.41244C183.426 7.66691 183.575 4.0731 183.344 3.66283C183.149 3.31479 181.938 2.86664 181.566 2.73628L180.441 2.30337C180.242 2.20646 180.283 2.18409 180.052 2.11866L177.495 1.39651C176.759 1.28582 177.026 1.2531 176.672 1.15324C176.384 1.07183 175.968 1.06247 175.649 1.02902C175.259 0.987945 175.205 0.858575 174.815 0.797083L171.956 0.376719C172.009 1.04353 172.603 0.756984 173.113 0.950067C173.812 1.21448 173.481 0.930887 174.485 1.04772C176.348 1.26442 175.205 1.43708 177.366 1.47127C177.493 1.66829 177.297 1.75758 178.033 1.8144C178.813 1.87466 178.338 1.95534 178.81 2.11202C179.012 2.17917 179.135 2.13735 179.335 2.16269C179.822 2.22418 179.518 2.17965 179.697 2.30903C180.156 2.63961 179.992 2.36143 180.443 2.54246C180.668 2.63297 180.515 2.66052 180.789 2.77195C181.014 2.86369 181.006 2.79507 181.201 2.85238C181.707 3.00143 181.028 2.93944 181.868 3.16721C182.489 3.33545 181.768 3.26904 182.605 3.49729C182.885 3.57354 183.041 3.69038 183.19 3.90215L183.209 7.50974C183.211 8.13572 183.328 8.67907 182.94 8.65816C182.805 8.65078 182.844 8.70612 182.549 8.39251L177.965 3.79516C177.533 3.36152 176.578 2.21876 175.979 2.59041H175.979ZM186.466 11.8579C186.505 11.9307 186.523 11.9787 186.586 12.0628L186.782 12.2761C186.871 12.3668 186.89 12.3836 186.988 12.4802C187 12.492 187.018 12.5088 187.03 12.5206L191.889 17.3351C191.901 17.3469 191.917 17.3651 191.929 17.3774L192.037 17.5144C192.379 17.9094 192.457 17.8197 192.696 18.332C193.7 18.332 193.348 18.2356 193.351 16.8562C193.353 16.0878 193.452 12.1167 193.274 11.6858C193.238 11.5997 193.248 11.6228 193.189 11.5234C193.179 11.5079 193.167 11.4875 193.157 11.4727L193.089 11.3768C192.904 11.1336 192.683 10.849 192.419 10.7071C192.48 11.1348 192.377 10.7892 192.893 11.3298C193.159 11.6088 193.104 11.6926 193.104 12.1809L193.101 16.3643C193.101 17.0562 193.239 17.7687 192.86 18.1411L191.787 17.0259C191.775 17.0141 191.757 16.9976 191.745 16.9858L189.416 14.6425C189.405 14.6302 189.386 14.6137 189.375 14.6017L189.101 14.3045C189.038 14.2376 188.985 14.1941 188.89 14.1041C188.851 14.0674 188.805 14.0202 188.764 13.9831C188.751 13.9715 188.733 13.9555 188.72 13.944L188.344 13.5844C188.332 13.5726 188.314 13.5561 188.302 13.5443L186.837 12.0535C186.824 12.0424 186.808 12.024 186.795 12.0134C186.607 11.8604 186.698 11.8778 186.465 11.8577L186.466 11.8579Z" fill="#8F8F8F"/>
<path fill-rule="evenodd" clip-rule="evenodd" d="M45.382 22.6099V38.5667C45.6685 39.0847 45.87 38.911 47.2676 38.911C50.6932 38.911 50.2665 39.1319 50.2161 37.5198C50.1244 34.581 50.2291 30.5115 50.2156 27.3474C50.2139 26.9015 50.2055 26.6385 50.4647 26.4486L51.6986 30.0521C51.7933 30.2498 51.8075 30.1463 51.9012 30.4232L54.0222 36.337C54.2425 37.0719 54.9105 38.1252 55.619 38.4294C56.4217 38.7738 56.5398 38.8869 57.5909 38.911H58.4077C59.5269 38.8872 59.6029 38.712 60.1312 38.4941C61.3439 37.9938 61.4619 37.2148 61.908 36.1717L62.7757 33.5959C62.8522 33.4218 62.7976 33.5728 62.8923 33.3844C63.0366 33.0974 62.9503 33.2745 63.028 32.9463C63.0929 32.6716 63.1033 32.7122 63.2201 32.4824C63.361 32.2055 63.2872 32.3843 63.3563 32.0446L63.5248 31.5574C63.6832 31.272 63.5806 31.6179 63.6854 31.1442C63.7058 31.0512 63.7051 30.9907 63.7437 30.8746C63.8379 30.5915 63.7402 30.8517 63.8516 30.6547L64.5398 28.8011C64.8194 28.3293 64.6108 28.4641 64.8905 27.8401C65.0279 27.5339 65.0609 27.2358 65.207 26.9268C65.4724 26.3658 65.3211 26.2836 65.5486 25.9567C65.5486 26.3675 65.6128 26.5126 65.5835 26.8107C65.4665 28.0032 65.5528 35.9124 65.5483 37.599C65.5442 39.1717 65.3809 38.9108 68.2536 38.9108C70.1788 38.9108 70.4766 39.0736 70.4732 38.179L70.469 23.331C70.4737 22.6027 70.1911 21.7094 69.7425 21.106C69.3217 20.5403 68.6183 20.1354 67.9592 19.9379C67.0881 19.677 64.6431 19.8885 63.8032 20.1118C63.621 20.1603 63.5086 20.1657 63.3962 20.1967C63.0851 20.2828 63.2806 20.2137 63.0632 20.3556C61.9791 21.0625 62.0256 21.3933 61.5928 22.4104L61.096 23.8813C61.0091 24.1449 60.9344 24.1599 60.8272 24.5963L60.3166 26.0534C60.1656 26.3736 60.1671 26.4792 60.0751 26.7957L58.1848 31.8742C58.0506 32.2065 58.1229 32.2756 57.9436 32.6167C57.7864 32.9153 57.7596 33.0718 57.679 33.4179L56.8369 30.8165C56.7542 30.4818 56.6847 30.6003 56.5814 30.2523C56.4837 29.9237 56.5668 29.843 56.4092 29.5225C56.0248 28.7406 56.2789 28.9794 56.1018 28.5182C56.0196 28.3045 56.0211 28.4152 55.9365 28.1916C55.848 27.9579 55.875 27.7729 55.7853 27.523C55.6832 27.2389 55.6215 27.2456 55.5388 26.8678L54.9314 24.8516C54.7855 24.5318 54.849 24.4585 54.759 24.1221C54.6798 23.8262 54.5977 23.7804 54.5163 23.4629C54.2706 22.5068 54.1031 21.3399 53.4302 20.6958C53.1523 20.4299 52.9693 20.267 52.6472 20.1672C52.5183 20.1271 52.4322 20.1057 52.3324 20.0722C51.692 19.8582 47.7713 19.8715 46.9208 20.2801L46.7679 20.373C46.7529 20.3824 46.7332 20.3962 46.7184 20.4055C46.7037 20.4151 46.6838 20.4286 46.669 20.4382C45.9863 20.8886 45.9376 21.126 45.6412 21.6238C45.445 21.9531 45.4327 21.87 45.4937 22.3787C45.3557 22.4522 45.383 22.1551 45.383 22.6096L45.382 22.6099ZM119.709 38.8291C119.831 38.7598 119.867 38.7447 119.982 38.6651C119.982 37.1996 119.816 33.0883 120.064 32.024C122.245 32.024 121.405 31.7313 123.303 33.7853L126.128 37.0277C126.246 37.1494 126.195 37.0751 126.337 37.2289L126.784 37.7656C126.907 37.8925 126.893 37.8534 127.031 38.0103C127.618 38.6754 127.217 38.4825 128.009 38.911H133.672L133.901 38.6473C133.844 38.3677 133.315 37.7333 133.017 37.5988C132.889 37.2854 132.988 37.4861 132.798 37.238C132.714 37.1268 132.668 37.0805 132.568 36.9819C132.38 36.7969 132.251 36.6754 132.093 36.474L130.587 34.6998C130.576 34.6875 130.56 34.6696 130.548 34.6573L128.719 32.5511C128.708 32.5383 128.691 32.5206 128.681 32.5078L127.801 31.502C127.735 31.425 127.753 31.4499 127.685 31.3719C127.593 31.2664 127.52 31.1783 127.423 31.0595C125.898 29.1845 125.819 29.6949 126.817 28.5288L126.965 28.3485C126.975 28.3355 126.991 28.317 127.003 28.3042L129.359 25.5774C129.391 25.5437 129.479 25.4584 129.482 25.4549L133.55 20.7511C133.839 20.4707 133.817 20.4931 133.919 20.0538C133.381 19.7687 132.374 19.8897 131.706 19.8897C130.886 19.8897 130.066 19.8897 129.246 19.8897C127.811 19.8897 128.087 19.7343 127.29 20.5565L127.206 20.637C127.194 20.6488 127.177 20.6653 127.165 20.6773L122.026 26.5222C121.832 26.7379 121.951 26.7067 121.587 26.7768C121.294 26.9637 120.507 26.8587 120.065 26.8587C119.846 25.9169 119.973 22.325 119.984 21.0362C119.996 19.6411 119.655 19.8895 118.18 19.8895C117.231 19.8895 116.038 19.783 115.228 19.9714C114.914 20.6274 115.064 24.673 115.064 25.7105L115.064 37.6809C115.058 39.156 115.127 38.9105 116.786 38.9105C117.708 38.9105 118.933 39.0431 119.71 38.8286L119.709 38.8291ZM42.1027 34.0517C41.7892 33.6648 41.6163 33.7408 40.9557 33.7452L30.216 33.7457L29.9876 33.4821C29.9701 33.0548 29.9027 32.417 30.052 32.1059C30.2244 31.9334 38.5313 32.0117 40.0546 32.025C40.6586 32.0304 41.0187 32.0941 41.119 31.5741V27.1047C40.6763 26.808 40.7194 26.7736 40.1267 26.8432L31.2814 26.8587C31.064 26.8592 30.7509 26.8769 30.5446 26.8577C30.1934 26.8255 30.2758 26.7657 29.9701 26.6946V25.3007C30.644 24.9773 34.9554 25.1367 36.0365 25.1367L40.7105 25.1357C42.4891 25.1295 42.1672 25.7376 42.1851 21.2829C42.1869 20.8714 42.2648 20.4055 42.0209 20.1797C41.8617 19.8673 41.8467 19.8794 41.1212 19.887L32.5932 19.8892C31.1051 19.8892 29.1966 19.7837 27.7601 19.8929C27.2417 19.9323 26.2995 20.1089 25.8792 20.3895C25.6006 20.5755 25.4196 20.6739 25.1926 20.9329C24.9663 21.1911 25.0081 21.229 24.8704 21.5124C24.4245 22.4305 24.6412 22.8022 24.6412 23.9887L24.641 36.1232C24.6383 36.7996 24.7032 37.2992 25.0303 37.8654L25.8214 38.6318C26.1537 38.8537 26.3711 38.8173 26.7732 38.9105C30.1614 38.9105 33.5497 38.9105 36.9376 38.9105C42.8184 38.9105 42.1841 39.5665 42.1841 36.5328C42.1841 35.8419 42.3167 34.567 42.1023 34.0512L42.1027 34.0517ZM4.88634 38.8291C5.11235 38.79 5.07301 38.8257 5.2127 38.7472C5.52602 37.4028 5.17015 28.791 5.28869 26.033L5.37649 25.6289L6.09879 26.7101C6.14503 26.7839 6.1738 26.8606 6.24488 26.9738C6.36514 27.1652 6.41875 27.2116 6.55992 27.3966C6.81741 27.7338 6.88578 27.9549 7.14328 28.2887L11.4503 34.6396C11.6318 34.8676 11.4813 34.6302 11.6166 34.8833C11.9983 35.5984 13.1652 37.3046 13.8172 37.8477L14.3437 38.305C14.7955 38.6805 15.3024 38.791 15.7728 38.9108C16.8026 38.9108 17.882 38.9427 18.9053 38.9135C19.8849 38.8854 20.5282 38.668 21.0717 37.9645C21.5956 37.2867 21.3619 36.5301 21.3619 35.3032V22.7589C21.3619 22.2849 21.327 21.6609 21.3666 21.2052C21.42 20.5885 21.6386 19.9232 20.7122 19.8833C20.539 19.8759 20.3125 19.8885 20.1325 19.8892C15.8183 19.9042 16.5254 18.9919 16.5254 24.2347L16.5256 32.1056C16.5264 32.2822 16.5429 32.5255 16.5362 32.69C16.5092 33.3637 16.3478 33.0351 16.3385 33.0804L15.4362 31.719C15.3029 31.5288 15.2436 31.4083 15.1059 31.2293L12.9296 27.9948C12.9193 27.9808 12.9043 27.9621 12.8944 27.9478L11.8081 26.3286C11.7366 26.2307 11.7132 26.1862 11.6414 26.0854C10.9931 25.1758 8.44426 21.0588 7.70056 20.434C7.326 20.1195 7.55448 20.2838 7.06384 20.087C5.96968 19.6477 4.80002 19.8944 3.24473 19.8887C2.52612 19.886 2.43487 19.857 1.80381 20.0872C1.28317 20.2771 1.3631 20.1539 0.874179 20.6333C0.862128 20.6451 0.844421 20.6616 0.832616 20.6739C0.139083 21.397 0.375917 22.0328 0.375917 23.6606L0.378131 38.5804C0.466422 39.0463 1.12282 38.9113 1.68748 38.9105C2.07188 38.91 4.77715 39.0084 4.88634 38.8286V38.8291ZM100.163 25.2191C101.178 24.9512 109.616 25.2459 111.71 25.1455C112.179 25.1231 112.194 24.9512 112.199 24.4866L112.195 20.9543C112.206 19.7463 112.044 19.8865 110.882 19.8895C109.157 19.8939 98.1496 19.7421 96.9984 20.024C96.1029 20.2434 95.2089 20.5993 94.9291 21.4799C94.9042 21.5579 94.8988 21.597 94.8727 21.6698C94.7722 21.9499 94.6612 22.0178 94.6507 22.3838V35.2215C94.6507 36.2912 94.6497 37.4918 95.3944 38.2491C96.3149 39.1855 97.8586 38.911 99.5693 38.911L111.296 38.9145C111.865 38.9181 111.863 38.8864 112.194 38.6651C112.194 37.269 112.194 35.8733 112.2 34.4775C112.202 34.0559 112.224 33.9273 111.887 33.8067C111.666 33.728 111.228 33.744 110.883 33.7452L100.307 33.7455L100.079 33.4818C100.061 31.7069 99.9026 32.0237 101.701 32.0237C103.539 32.0237 110.168 32.1462 111.046 31.9418C111.383 31.2393 111.204 29.1302 111.211 28.0878C111.22 26.4504 111.05 26.8584 108.505 26.8584C105.772 26.8584 103.04 26.8584 100.307 26.8584L100.079 26.595C100.061 25.971 100.063 25.759 100.163 25.2188V25.2191ZM84.6685 38.9113C85.2681 38.5423 85.1461 38.6038 85.1411 37.6817L85.1409 25.2191C86.5545 24.8897 91.2622 25.4222 92.027 25.055C92.2238 24.8582 92.1089 20.7398 92.1089 20.1357L91.8455 19.9074C91.8433 19.9064 74.4679 19.8287 74.1083 19.9242C73.8225 20.0002 73.8643 20.0319 73.8051 20.1128C73.6344 20.3455 73.6612 20.8662 73.6629 21.1186C73.6676 21.7888 73.6096 24.3555 73.7256 24.8295C73.8174 25.2041 73.7785 25.1421 74.2286 25.1463C76.1774 25.165 78.2894 25.0582 80.2222 25.2191V37.5174C80.2212 38.1874 80.0882 38.7595 80.6221 38.9113H84.6682H84.6685Z" fill="#8F8F8F"/>
<path fill-rule="evenodd" clip-rule="evenodd" d="M90.962 47.5195C89.3408 47.5195 89.6505 47.8552 89.6505 45.8796C89.6505 45.5153 90.0331 45.6336 90.8801 45.6336C91.3088 45.6336 91.7193 45.8636 91.8474 46.142C92.1403 46.7789 91.7881 47.5195 90.962 47.5195ZM89.648 49.4053L89.5747 49.0956L91.8683 48.9844C92.309 48.3004 92.3739 49.0491 92.8926 48.3845C93.0161 48.2264 92.9875 48.2283 93.0864 48.0852C93.247 47.853 93.202 48.019 93.3129 47.7413C93.638 46.9279 93.685 47.1451 93.6828 46.5336C93.6803 45.8366 93.5967 46.1467 93.4073 45.7303C93.2908 45.4738 93.156 45.0079 92.8041 44.6928C92.4239 44.3522 92.3587 44.5984 92.023 44.4033C91.8838 44.3226 91.9802 44.3187 91.7817 44.1463L87.7646 44.1276C87.6001 44.9567 87.8859 50.1294 87.7492 51.4461C87.6965 51.953 87.7275 51.845 87.8465 52.3564C88.1636 52.4302 88.5575 52.4801 88.9887 52.4331C90.2646 52.2942 89.3354 50.1051 89.6478 49.4048L89.648 49.4053ZM5.80085 52.3569C5.82716 52.059 5.99464 51.4047 5.82102 51.1711C5.51212 50.8594 2.86883 51.0744 2.20997 51.0016C1.82262 50.797 1.84279 48.8954 2.17997 48.677C2.65831 48.3668 5.06649 48.9409 5.19118 48.475L5.24307 48.2549C5.31906 47.6036 5.13191 47.5414 4.80629 47.5079L2.26186 47.5116C1.8273 47.3377 1.79188 45.8609 2.2021 45.2522C2.82308 45.1698 5.53819 45.4101 5.79544 45.0731C5.95013 44.9474 5.86946 44.6038 5.86946 44.3158C5.36579 43.9052 4.03726 44.0966 3.2456 44.0966C2.28252 44.0966 1.41388 44.1177 0.458431 44.1574C0.291443 44.1305 0.370878 44.0853 0.376043 44.9769C0.385634 46.5939 0.257504 51.494 0.458431 52.3566C0.838891 52.4452 5.60976 52.5318 5.80085 52.3566V52.3569ZM80.0588 49.4872C80.0588 48.7975 79.9535 48.2148 80.2214 47.928C80.5153 47.6132 81.0416 47.5546 81.3654 47.9346C81.7862 48.4288 81.6839 49.8379 81.3964 50.1693C81.0657 50.5503 80.6795 50.6078 80.2765 50.2541C80.1889 50.1774 80.059 50.2858 80.059 49.4872H80.0588ZM78.1732 49.9767C78.8395 50.0212 78.4347 50.4642 78.8532 51.0205C79.0591 51.2943 79.4233 51.7169 79.8264 51.7616C81.5184 51.9491 81.6832 50.9883 81.9203 51.6305C81.9439 51.6945 81.9655 52.4004 81.969 52.5207C81.844 52.7128 81.9139 52.6048 81.7742 52.7622C81.7093 52.8355 81.6647 52.8847 81.5634 52.9622C81.4245 53.0682 81.485 52.9981 81.3239 53.1326C81.2442 53.1991 81.2779 53.2131 81.1247 53.3213C80.8598 53.323 80.2066 53.368 79.9897 53.3213C79.5839 53.2337 79.8682 53.084 79.0608 53.0057C78.5869 53.9407 79.0598 53.9876 79.7324 54.3273C80.6608 54.7961 81.0519 54.3908 81.9427 54.0828C82.3981 53.9254 82.5671 53.5724 82.8558 53.1853C83.2515 52.6542 83.1384 52.5475 83.0951 51.7843C83.0346 50.7165 83.2973 46.7624 82.9655 46.4992L82.8278 46.4564C82.8128 46.4537 82.7299 46.331 82.2838 46.451C82.0543 46.5127 82.043 46.6057 81.8622 46.7562L81.0723 46.4232C81.0534 46.4082 81.0054 46.358 80.9894 46.3413L80.0586 46.1664C79.5291 46.0651 79.1828 46.2933 78.835 46.6239C77.9617 47.4538 78.1732 48.7545 78.1732 49.9769V49.9767ZM51.6124 48.2574C51.6124 47.7207 52.1675 47.6198 52.5782 47.641C53.2279 47.6744 53.2943 47.9814 53.4158 48.5033H51.6124V48.2574ZM49.7268 49.2412C49.7268 49.6778 49.8023 50.1651 49.865 50.4969C49.9285 50.8324 49.8884 50.7281 50.0347 50.9832C50.4312 51.6746 51.2651 52.439 52.1043 52.439C53.373 52.439 53.5216 52.545 54.5737 51.8753C54.9005 51.6672 54.8914 51.8598 54.8914 51.2092C54.8914 50.9743 54.7503 50.9664 54.6088 50.8361C54.1839 50.444 54.6261 50.5535 53.9077 50.5535C53.1593 50.5535 53.9977 50.8813 52.3502 50.8813C52.2179 50.8813 51.8391 50.5776 51.759 50.4848C51.5221 50.2111 51.5839 50.1574 51.6124 49.8153C52.2683 49.8153 52.924 49.8153 53.5799 49.8153C55.3887 49.8155 55.2195 49.9491 55.2195 48.6674C55.2195 47.8368 54.8029 46.9139 54.0946 46.513C53.6622 46.2682 53.5036 46.0439 52.5142 46.0439C50.6055 46.0439 49.7271 47.4282 49.7271 49.2415L49.7268 49.2412ZM58.2526 46.4537C57.7475 46.0146 57.6643 46.1258 56.6951 46.1258C56.5033 46.1258 56.3673 46.2618 56.3673 46.4537C56.3673 47.5844 56.2578 51.4527 56.4492 52.275C56.8459 52.4653 57.727 52.5679 58.0369 52.2231C58.2924 51.9392 58.1707 50.7323 58.1707 50.0613C58.1707 49.4478 57.9877 48.4549 58.3756 47.9706C58.7054 47.5586 59.2656 47.6233 59.5278 47.8023L59.6161 47.8778C59.6279 47.8899 59.6438 47.9081 59.6547 47.9211C59.7934 48.0867 59.8453 48.3051 59.8748 48.521L59.8772 51.6101C59.7921 52.7858 61.2333 52.4575 61.6138 52.275C61.796 51.4925 61.6957 49.2786 61.6957 48.3395C61.6957 47.0305 60.7806 45.949 59.4144 46.0525C58.5177 46.1204 58.6249 46.2043 58.2526 46.4537ZM107.685 49.4053C107.685 48.3324 107.58 47.6835 108.669 47.6835C109.523 47.6835 109.468 50.0837 109.106 50.4984C108.564 51.1197 107.883 50.5616 107.812 50.4263C107.735 50.2785 107.686 49.6434 107.686 49.4053H107.685ZM109.736 52.3569C109.939 52.455 110.171 52.4811 110.467 52.4371L110.729 52.3569C110.778 51.2859 110.897 44.6904 110.683 44.2006C110.574 44.0823 110.089 44.0986 109.91 44.1436C109.885 44.1497 109.863 44.1591 109.841 44.1657C109.102 44.393 110.399 46.9097 108.99 46.5467C108.693 46.4699 108.728 46.4006 108.587 46.2045C107.064 46.2181 107.72 46.192 107.302 46.4756C107.068 46.634 106.827 46.5314 106.388 47.2836C106.209 47.5903 106.284 47.9487 106.27 48.3368C106.25 48.9025 106.04 48.8794 105.949 49.2415C105.922 49.7575 106.266 49.1687 106.274 50.3055C106.279 50.9935 106.375 51.3388 106.92 51.8145C107.401 52.2344 108.023 52.0388 108.946 52.0563C109.032 51.8411 109.1 51.6109 109.483 51.6778C109.841 51.7402 109.744 51.9788 109.736 52.3574L109.736 52.3569ZM44.1171 52.3569C44.2696 52.5081 44.9291 52.4658 45.1753 52.396C45.9153 52.1864 45.6281 50.4059 45.6281 49.0772L48.1725 49.0804C48.4411 49.057 48.5645 49.0176 48.6843 48.8543C48.8314 48.6539 49.1044 47.3561 48.2544 47.2705C47.5592 47.2004 46.377 47.2735 45.6281 47.2735V45.7753C45.495 45.6467 45.5831 45.8351 45.4894 45.6024C45.3979 45.3751 45.4427 45.55 45.4419 45.2942C46.2454 45.0401 48.2458 45.4128 48.9912 45.1402C49.1044 44.8195 49.0394 44.3817 48.8737 44.1224C48.8213 44.1123 44.4353 43.9982 44.227 44.1524C43.9336 44.3699 44.0762 47.6269 44.0762 48.1754C44.0762 49.5671 44.0307 50.9689 44.1168 52.3569H44.1171ZM73.1764 52.3569L73.2361 48.4192C73.3096 48.0517 73.9665 47.3055 74.4043 47.2836C74.7041 47.2688 75.1842 47.6734 75.373 47.8591C75.7958 48.2751 75.435 50.8388 75.6195 52.2747C75.7013 52.4452 75.8182 52.4395 76.1189 52.4474C77.3061 52.4791 77.1081 52.1148 77.1081 50.1429C77.1081 49.7125 77.1236 49.2552 77.1108 48.8285L77.0198 47.6078C76.9898 47.3866 76.6979 46.92 76.5572 46.7587C75.6561 45.7256 74.0642 45.9802 73.7472 46.4534C73.4643 46.2641 73.485 46.1612 73.0091 46.1256C71.4794 46.0107 71.7797 46.1568 71.7797 48.0933C71.7797 49.2685 71.6361 51.3064 71.8616 52.2747C72.0116 52.3468 72.989 52.6525 73.1768 52.3566L73.1764 52.3569ZM117.546 52.275C117.577 51.1369 117.704 47.3901 117.516 46.5312C117.435 46.4908 116.826 46.3206 116.704 46.2909C116.396 46.9031 116.447 46.6303 116.454 47.5192C116.459 48.3075 116.646 50.705 115.719 50.9846C114.556 50.9758 114.121 51.1794 114.175 49.8975C114.358 49.334 114.245 48.5451 114.244 47.9297C114.242 46.1758 114.57 46.1081 113.255 46.1199C112.226 46.129 112.44 46.5853 112.44 48.3398C112.44 49.699 112.387 50.9866 113.012 51.7031C114.263 53.1356 115.913 52.1104 115.965 52.1112C115.969 52.1112 116.791 52.6481 117.402 52.4036C117.58 52.3325 117.505 52.3561 117.547 52.2752L117.546 52.275ZM101.291 49.7334C101.291 48.6362 101.162 48.6334 101.614 48.007C102.202 47.1923 103.095 48.0453 103.095 48.5036C103.095 49.7078 103.229 50.4115 102.454 50.7325C102.275 50.8068 102.626 50.7992 102.275 50.7992C102.013 50.7992 101.726 50.639 101.608 50.4829L101.461 50.2194C101.452 50.2032 101.44 50.183 101.432 50.1665C101.338 49.9828 101.291 49.989 101.291 49.7334ZM104.98 49.9147V48.7013C104.677 48.6745 104.667 48.6056 104.615 48.3223C104.54 47.914 104.577 47.8594 104.163 47.276C103.753 46.6957 103.419 46.6202 103.105 46.4424C102.997 46.3814 102.962 46.3356 102.913 46.3088C102.619 46.1443 101.956 46.1952 101.537 46.2153C101.083 46.8047 101.136 46.2677 100.468 47.0253C100.284 47.2339 100.244 47.3129 100.117 47.6525C99.8033 48.491 99.702 47.6705 99.811 49.9843L100.315 51.283C100.585 51.5865 101.197 52.0027 101.452 52.0462C102.845 52.2836 103.047 51.9919 103.563 51.7742C103.652 51.7365 103.679 51.7425 103.748 51.7134L104.141 51.3573C104.242 51.178 104.183 51.2483 104.259 51.0624C104.477 50.5269 104.498 50.944 104.58 50.5298C104.667 50.0913 104.473 49.9085 104.981 49.9149L104.98 49.9147ZM130.785 50.8813L130.716 51.1915C130.378 51.1895 130.514 51.1925 130.32 51.1147C130.303 51.1079 130.284 51.0953 130.267 51.0882L129.966 50.9817C129.436 50.8282 129.699 50.8031 129.328 50.655C129.085 50.8245 129.185 50.8882 128.83 51.1054L128.821 51.6387C129.019 51.7223 129.165 51.7188 129.356 51.8453C129.666 52.0506 129.422 52.091 129.853 52.0797L131.954 52.0588C132.371 51.9921 132.15 51.9493 132.506 51.7631C132.929 51.5417 132.671 51.77 132.992 51.4306C133.128 51.2869 133.248 51.2289 133.305 50.9342C133.362 50.6386 133.364 49.7312 133.231 49.5103C133.02 49.1596 132.687 48.9835 132.297 48.8922C131.622 48.7338 131.941 48.4099 131.227 48.6007C130.712 48.7382 130.279 48.3346 130.09 48.2222C130.097 47.5219 130.196 47.3283 130.88 47.2978L130.947 47.6016L132.212 47.7603C132.214 47.761 132.45 48.069 132.985 47.488L133.102 47.3591C133.114 47.347 133.133 47.3318 133.144 47.3197L133.323 47.088C133.368 46.95 133.344 46.7651 133.344 46.6177C132.536 46.1898 131.941 45.9062 130.755 46.0771C130.541 46.1079 130.218 46.1175 130.03 46.1726C129.748 46.2547 129.77 46.3187 129.516 46.478C129.264 46.6355 129.254 46.6192 129.066 46.8487C128.617 47.3975 128.552 48.1509 128.755 48.8297C128.847 49.1382 129.14 49.3913 129.403 49.5757C129.687 49.775 130.515 49.9135 130.898 49.9666C132.05 50.126 131.869 50.0022 131.869 50.6354C131.335 50.9177 131.6 50.8813 130.784 50.8813H130.785ZM13.9848 47.7657C14.02 48.1897 14.138 48.0234 14.1488 48.5036H12.4273C12.4273 47.4499 13.2143 47.5861 13.9848 47.7657ZM13.8262 50.8813H13.1562C12.76 51.1957 12.5023 50.9394 12.2785 50.704C12.2232 50.6457 11.9637 50.5387 12.0262 49.9799L12.0884 49.7437C12.1499 49.5388 14.122 49.6448 14.3126 49.6451C15.2376 49.6461 15.7452 49.8426 15.7344 48.8327C15.728 48.2077 15.437 47.4058 14.9744 46.9424C14.3532 46.3199 14.5895 46.6657 14.1422 46.4618C13.5947 46.2124 14.4641 46.2249 12.9189 46.1743L12.6865 46.1261C12.2846 46.7646 12.3887 46.3172 11.6841 46.7798C11.3491 46.9997 11.4986 46.8487 11.3442 47.2487C11.2013 47.6191 11.1666 47.47 11.0464 47.7782C10.7119 48.6354 10.8194 49.8588 11.0446 50.7079C11.1061 50.9399 11.5043 51.5398 11.7315 51.661L12.2618 51.9525C12.5714 52.1357 13.4073 52.0659 13.822 52.0703C14.7059 52.0799 14.3925 52.0187 14.8163 51.8003C14.9361 51.7385 14.9752 51.7452 15.0932 51.665C15.2572 51.5533 15.4026 51.357 15.4641 51.1273C14.9943 50.462 14.6387 50.8309 14.3812 50.9467C14.0455 51.0978 14.1542 50.9359 13.9051 51.1996L13.8259 50.8813H13.8262ZM124.983 46.1261C124.821 46.2035 124.604 46.2446 124.409 46.2901C124.166 47.3345 124.252 47.684 124.983 47.684C124.983 48.6391 124.83 50.9322 125.167 51.4355C126.023 52.7165 127.852 52.7561 127.852 51.7835C127.852 51.0813 127.961 50.8816 126.95 50.8816C126.884 50.5953 126.786 50.6056 126.786 50.3077C126.786 47.0258 126.588 47.8584 127.688 47.6021C127.859 47.2459 127.979 46.6438 127.636 46.3425C127.141 45.9079 126.761 46.71 126.782 45.5571C126.786 45.2817 126.786 45.0081 126.786 44.7324C126.279 44.3925 126.695 44.4865 125.311 44.4865C124.811 44.4865 124.983 45.6248 124.983 46.1263L124.983 46.1261ZM7.18054 44.6503V49.9796C7.18054 52.927 10.1317 52.7076 10.1317 52.0292C10.1317 50.4224 10.2459 51.2599 9.06611 50.6354V45.1419C9.06955 43.8019 9.1094 43.8302 7.91834 43.8302C7.40975 43.8302 7.18054 44.1261 7.18054 44.65V44.6503ZM120.72 48.9684L120.424 48.8851C120.386 48.4428 120.52 48.4131 120.638 48.0901C120.817 47.5984 120.71 47.8348 121.112 47.5859C121.24 47.5067 121.85 46.8524 122.412 47.6186C122.822 47.6038 122.786 47.6557 123.026 47.4476C123.884 46.7036 122.886 46.6059 122.593 46.3883C122.319 46.1849 122.774 46.3782 122.359 46.1949C122.102 46.1967 121.981 46.2535 121.807 46.2387C121.601 46.2213 121.625 46.1711 121.376 46.1512C121.039 46.1116 120.837 46.1268 120.585 46.2377C120.213 46.4018 120.04 46.557 119.817 46.7816C119.635 46.9646 119.31 47.3293 119.219 47.5768C119.153 47.7551 119.187 47.7246 119.138 47.9061C118.987 48.4731 118.912 48.1742 118.914 49.0762C118.918 50.611 119.519 52.0703 121.079 52.4085C122.33 52.6801 123.408 52.1749 123.835 51.5376C123.663 51.1797 123.673 51.084 123.136 50.6789C122.44 50.155 121.718 51.4397 120.978 50.3771L120.72 48.9687V48.9684ZM34.8891 49.0026C34.8891 49.4395 35.1073 50.5613 35.2797 50.9008C35.3677 51.0742 35.3326 50.9792 35.3786 51.0478C35.6353 51.433 35.7091 51.7471 36.38 52.0962C37.9879 52.9329 39.6573 52.1362 39.8081 51.6192C39.8909 51.3354 39.326 50.3985 38.6591 50.5443C38.0804 50.6708 38.0351 51.0139 37.5447 50.7753L37.2769 50.626C36.8217 50.3208 36.775 49.7408 36.775 49.0828C36.6581 49.0009 36.5748 48.935 36.458 48.8317C36.6668 47.8677 36.5954 47.9541 37.2981 47.4749C37.501 47.3367 37.7046 47.1724 38.1114 47.3281C38.5386 47.4917 38.1628 47.6051 38.9062 47.5935C39.2682 47.3256 38.9478 47.4282 39.4906 47.2054C39.4647 46.7589 39.4087 46.6925 39.0307 46.5727C38.4562 46.3905 38.7641 46.4734 38.4141 46.2117L37.2663 46.2144C36.9511 46.4436 37.2727 46.3526 36.8851 46.4807C36.5649 46.5865 36.6333 46.4443 36.3896 46.6514C36.3866 46.6541 36.2806 46.788 36.2452 46.8258L35.3188 48.1991C35.1889 48.662 35.4371 48.9503 34.8891 49.0026ZM22.2646 46.5132C22.1213 46.8603 21.9939 47.6651 22.8384 47.684C22.8384 49.8047 22.436 51.3974 23.8467 52.1687C24.1568 52.3384 24.9084 52.638 25.343 52.3574C25.4537 50.1301 24.45 51.5981 24.3418 50.3803C24.2803 49.6859 24.0641 47.5276 24.6984 47.3367C25.1059 47.214 25.4205 47.4555 25.3907 46.8704C25.3413 45.9005 24.3932 47.1316 24.3334 45.9551C24.2978 45.2534 24.6135 44.4997 23.5937 44.7393C22.9456 44.8916 23.6018 45.7847 23.1269 46.4926L22.2646 46.5132ZM19.2301 46.1261C18.6233 46.6384 17.9109 46.5427 17.522 47.6205C17.4131 47.9219 17.4293 47.9351 17.283 48.1981C16.8561 48.9645 17.1281 48.7537 17.0555 49.4542C17.0112 49.8825 17.0058 49.7816 17.1733 50.0691C17.3494 50.3712 17.542 51.0355 17.6799 51.2053L18.328 51.787C18.809 52.0804 18.5264 52.0115 18.8985 52.0553C19.3479 52.1082 20.5283 52.1328 20.839 51.9168C21.1621 51.6923 20.9681 51.8057 21.3778 51.6414C21.3724 51.1694 21.3488 51.0235 20.7893 50.7052C20.2797 50.9165 20.7632 51.0498 18.9763 50.9654C18.7812 50.5928 18.5117 50.5837 18.5272 50.0632C18.5299 49.9749 18.5395 49.9127 18.5636 49.8286C18.6105 49.666 18.5955 49.7204 18.6578 49.6326V48.692C18.5385 48.5237 18.3939 48.1683 18.7426 47.851C19.1238 47.5042 19.5001 47.0718 20.0409 47.366C20.445 47.5856 20.0473 47.608 20.8173 47.6063C21.079 47.302 21.454 47.0529 21.2093 46.692C21.0291 46.4264 20.8397 46.6938 20.504 46.3248L20.352 46.1263C19.9703 46.0894 19.6413 45.931 19.2298 46.1263L19.2301 46.1261ZM64.8933 50.9549C64.8114 50.9005 64.4086 50.5281 64.3636 50.431C64.2854 50.262 64.2755 49.7169 64.2283 49.4845C64.1262 48.9842 64.2283 49.1357 64.2812 48.6536C64.3259 48.2446 64.1845 48.0097 65.1828 47.3957C66.1407 46.8064 66.3116 48.5466 67.2742 47.1918L66.9441 46.6195C66.7587 46.4557 66.7326 46.5747 66.3851 46.3543C66.2243 46.2525 66.3478 46.2458 66.0657 46.1878C65.8972 46.1531 65.9125 46.1765 65.7523 46.1927C65.4012 46.2286 65.3092 46.1991 64.9752 46.2077C64.5891 46.6421 64.4172 46.5078 63.9071 46.7798C63.4595 47.0184 63.7647 46.8266 63.5495 47.2501C63.4042 47.5362 63.3717 47.3891 63.2807 47.7059C63.1393 48.1991 63.338 47.915 63.0623 48.3137C62.868 48.5948 62.9224 48.4266 62.9406 48.9074C62.9509 49.1824 62.9231 49.4958 62.9349 49.7366C62.9576 50.1975 62.9959 49.9346 63.1516 50.2381C63.2861 50.5001 63.2037 50.6676 63.3257 50.898C63.5466 51.3155 64.0313 51.6136 64.4196 51.8517C64.9818 52.196 65.2612 52.0934 66.1294 52.0595C66.6416 52.0396 66.4597 52.0413 66.7685 51.8546C67.3595 51.4972 67.4562 51.331 66.5329 50.7342C66.2477 50.9726 66.3436 50.9962 65.8001 50.9807C65.4931 50.9718 65.198 50.9977 64.8933 50.9544V50.9549ZM68.5823 47.0278V51.6192C68.5823 52.5765 69.1671 52.439 69.8939 52.439C70.1548 52.439 70.4676 52.0214 70.4676 51.7011V46.6999C70.4676 45.9765 69.8149 46.1261 68.992 46.1261C68.6308 46.1261 68.5821 46.6529 68.5821 47.028L68.5823 47.0278ZM32.1841 46.208C32.027 46.8829 32.027 51.6 32.1841 52.2752C32.6103 52.4799 33.5341 52.5989 33.8442 52.1254C34.0043 51.8809 33.9057 49.8913 33.9057 49.4877L33.914 46.6096C33.8845 45.9982 33.5326 46.1263 32.5938 46.1263C32.4647 46.1263 32.2832 46.1698 32.1839 46.2082L32.1841 46.208ZM27.1804 52.3571C27.2812 52.4196 27.1858 52.3901 27.3626 52.4228C27.4492 52.4388 27.4974 52.4412 27.5857 52.4452C27.7701 52.4531 28.0072 52.4393 28.1985 52.4393C28.2492 51.6787 28.275 50.9155 28.275 50.0615C28.275 48.0665 28.4022 48.829 28.4558 47.7962L29.256 47.3062C29.8849 47.1552 29.8241 47.5748 30.2171 47.5581C30.558 47.5436 30.9663 46.9491 31.0814 46.6556C29.3529 45.8794 30.1847 46.2862 28.7728 46.6433C28.7497 46.6492 28.6931 46.6692 28.6739 46.6721C28.4833 46.7014 28.4349 46.5747 28.0608 46.4687C27.4902 46.3073 27.4924 46.48 27.0894 46.6893C27.1213 48.5609 27.021 50.599 27.1811 52.3574L27.1804 52.3571ZM95.3057 52.439C95.6992 52.439 96.1013 52.4885 96.3701 52.3571C96.38 51.1268 96.3721 49.8943 96.3873 48.6652C96.3996 47.6707 96.4092 47.9376 97.0132 47.5032C97.7665 46.9616 97.6827 47.5099 98.2584 47.6198L98.6708 47.2816C98.6843 47.271 98.7045 47.2573 98.7178 47.2464C98.7313 47.2356 98.7507 47.2206 98.764 47.2093C98.9128 47.0826 99.1061 46.9191 99.1538 46.6999C98.9723 46.4793 99.053 46.6453 98.6814 46.358L98.5919 46.2827C98.5245 46.2431 98.555 46.2414 98.416 46.2136C98.4 46.2104 97.7835 46.205 97.7633 46.2075C97.3538 46.2567 97.6312 46.2094 97.3875 46.4035C96.7343 46.9237 95.7555 46.1084 95.3773 46.5154C95.1493 47.0566 95.2961 51.4478 95.3055 52.4388L95.3057 52.439ZM0.458678 44.1578C1.41413 44.1182 2.28277 44.0971 3.24584 44.0971C4.0375 44.0971 5.36579 43.9057 5.86971 44.3162C5.86971 44.6043 5.95038 44.9476 5.79568 45.0736C5.53844 45.4105 2.82333 45.1702 2.20235 45.2526C1.79238 45.8612 1.82754 47.3382 2.26211 47.5121L4.80654 47.5084C5.13215 47.5418 5.31931 47.6043 5.24332 48.2554L5.19143 48.4755C5.06674 48.9414 2.65855 48.3671 2.18021 48.6775C1.84328 48.8961 1.82287 50.7974 2.21022 51.0021C2.86907 51.0749 5.51237 50.8599 5.82126 51.1716C5.99489 51.4052 5.82741 52.0595 5.80109 52.3574C6.35592 52.0964 6.24476 51.282 6.09794 50.9807C5.86086 50.4932 5.32546 50.6351 4.6393 50.6356C4.03505 50.6361 3.43251 50.6361 2.82849 50.6427C2.47066 50.6467 2.0843 50.9069 2.2535 49.3153C2.30515 48.8287 2.50927 48.9957 3.73747 48.9957C4.29131 48.9957 5.13757 49.0907 5.44056 48.8132C5.72166 48.556 5.70346 47.6326 5.44277 47.3721C5.14396 47.0733 4.29155 47.1921 3.73747 47.1921C3.43325 47.1921 3.13222 47.196 2.82849 47.1992C2.47656 47.2031 2.09315 47.4567 2.2535 45.9539C2.29875 45.5291 2.42565 45.6209 2.91285 45.6295C3.51539 45.64 4.11842 45.6336 4.7212 45.6344C5.43908 45.6354 5.95111 45.7674 6.14589 45.1732C6.28362 44.7526 6.26984 44.0722 5.74674 43.8705L0.722564 43.8428C0.43433 43.9439 0.561478 43.9043 0.458431 44.1578H0.458678ZM109.736 52.3571C109.745 51.9786 109.841 51.7402 109.483 51.6775C109.101 51.6109 109.032 51.8408 108.946 52.0561C108.023 52.0386 107.402 52.2341 106.92 51.8143C106.375 51.3386 106.279 50.9935 106.274 50.3053C106.267 49.1684 105.922 49.7573 105.949 49.2412C106.04 48.8792 106.25 48.9023 106.27 48.3366C106.285 47.9484 106.209 47.59 106.388 47.2833C106.827 46.5309 107.068 46.6337 107.302 46.4753C107.72 46.192 107.064 46.2178 108.588 46.2043C108.728 46.4006 108.693 46.4697 108.991 46.5464C110.399 46.9097 109.102 44.3927 109.841 44.1655C109.863 44.1588 109.885 44.1495 109.91 44.1433C110.089 44.0983 110.574 44.0818 110.683 44.2004C110.898 44.6901 110.778 51.2857 110.73 52.3566C111.272 52.3089 111.216 51.8015 111.212 51.2099L111.205 44.4916C111.139 43.8863 110.844 43.8039 110.142 43.8223C108.64 43.8615 109.688 45.3614 109.243 46.2894L109.175 46.2884C108.923 46.2156 108.549 45.976 107.874 46.0619C107.014 46.1711 106.567 46.3179 106.136 47.1176C105.621 48.0739 105.766 50.6319 106.02 51.1529C106.529 52.1992 107.262 52.5003 108.427 52.4432C109.161 52.4073 109.156 51.7508 109.736 52.3566L109.736 52.3571ZM78.1737 49.9769C78.2974 51.4827 79.3011 52.2467 80.7981 52.1121C81.3 52.0671 81.2046 51.8551 81.4916 51.8194C81.7764 51.784 81.6714 52.2041 81.606 52.4221C81.5071 52.7499 81.5438 52.5099 81.2071 53.0129C80.0121 53.0129 80.1614 53.1376 79.4855 52.685C79.1036 52.8872 79.1171 52.8842 78.8365 53.1838C78.1189 53.9495 78.5817 53.9987 79.0844 54.3162C79.3485 54.483 79.2922 54.4746 79.7524 54.5501C81.8969 54.9019 83.5161 54.0373 83.5031 51.62L83.5026 46.3723C83.1219 46.1174 83.1615 46.1118 82.5172 46.1202C81.8403 46.129 81.9188 46.1971 81.5351 46.4542C81.3364 46.1573 81.3231 46.1831 80.8957 46.1091C80.2378 45.995 80.2762 45.9615 80.0595 46.1666L80.9904 46.3415C81.0064 46.358 81.0543 46.4084 81.0733 46.4234L81.8632 46.7565C82.044 46.6057 82.0553 46.513 82.2847 46.4512C82.7309 46.3312 82.8138 46.4537 82.8288 46.4566L82.9665 46.4994C83.2982 46.7629 83.0356 50.717 83.0961 51.7845C83.1394 52.5477 83.2525 52.6545 82.8568 53.1855C82.5683 53.5727 82.3991 53.9256 81.9436 54.0831C81.0529 54.391 80.6621 54.7964 79.7334 54.3276C79.0608 53.9879 78.5876 53.9409 79.0618 53.006C79.8689 53.0844 79.5849 53.234 79.9907 53.3216C80.2073 53.3683 80.8608 53.3233 81.1257 53.3216C81.2786 53.2136 81.2452 53.1993 81.3249 53.1329C81.4862 52.9986 81.4257 53.0687 81.5644 52.9624C81.6657 52.885 81.7102 52.8358 81.7752 52.7625C81.9149 52.6051 81.845 52.713 81.9699 52.5209C81.9665 52.4007 81.9449 51.6947 81.9213 51.6308C81.6844 50.9883 81.5194 51.9493 79.8274 51.7619C79.4243 51.7174 79.0601 51.2945 78.8542 51.0208C78.4356 50.4644 78.8404 50.0212 78.1742 49.9769H78.1737ZM44.1173 52.3571C44.0312 50.9691 44.0767 49.5674 44.0767 48.1757C44.0767 47.6274 43.9341 44.3704 44.2275 44.1527C44.4358 43.9985 48.8218 44.1126 48.8742 44.1227C49.0399 44.3819 49.1049 44.8197 48.9917 45.1405C48.2463 45.413 46.2459 45.0404 45.4424 45.2945C45.4431 45.5503 45.3984 45.3756 45.4899 45.6027C45.5836 45.8351 45.4955 45.6469 45.6286 45.7756C45.7442 45.5365 45.5241 45.6912 45.9535 45.6287L47.4323 45.6341C48.0766 45.6341 48.7101 45.6747 49.2357 45.5522C49.4292 45.1491 49.565 44.2181 49.129 43.9372C48.7728 43.7077 45.7852 43.831 45.1367 43.8305C43.197 43.829 43.6611 43.5882 43.6611 48.5857L43.6555 51.7068C43.6601 52.1741 43.6658 52.3266 44.1176 52.3571H44.1173ZM64.8933 50.9549C65.198 50.9984 65.4931 50.9726 65.8001 50.9812C66.3436 50.9967 66.2474 50.9728 66.5329 50.7347C67.4562 51.3314 67.3595 51.4977 66.7685 51.8551C66.4597 52.0418 66.6416 52.0398 66.1294 52.06C65.2612 52.0939 64.9818 52.1967 64.4196 51.8521C64.0313 51.6143 63.5466 51.3159 63.3257 50.8985C63.2037 50.6678 63.2861 50.5003 63.1516 50.2386C62.9959 49.9351 62.9576 50.198 62.9349 49.7371C62.9231 49.4963 62.9509 49.1829 62.9406 48.9079C62.9224 48.4273 62.868 48.5956 63.0623 48.3142C63.338 47.9155 63.1393 48.1993 63.2807 47.7064C63.3717 47.3893 63.4042 47.5367 63.5495 47.2506C63.7647 46.8271 63.4595 47.0189 63.9071 46.7803C64.4172 46.5083 64.5891 46.6426 64.9752 46.2082C65.3092 46.1996 65.4012 46.2291 65.7523 46.1932C65.9125 46.1767 65.897 46.1534 66.0657 46.1883C66.3478 46.2463 66.2243 46.253 66.3851 46.3548C66.7326 46.5752 66.7587 46.4564 66.9441 46.62L67.2742 47.1923C66.3114 48.5469 66.1407 46.8069 65.1828 47.3962C64.1848 48.0102 64.3262 48.2453 64.2812 48.6541C64.2283 49.1362 64.1265 48.9847 64.2283 49.485C64.2758 49.7174 64.2854 50.2622 64.3636 50.4315C64.4086 50.5286 64.8114 50.901 64.8933 50.9554V50.9549ZM62.7618 49.1596C62.7618 50.1567 62.8734 50.8117 63.3297 51.3792L63.6307 51.7341C64.9462 53.173 68.2771 52.1881 67.4008 51.0835C66.436 49.8672 66.0438 51.1145 65.274 50.7544C64.6988 50.4853 64.5652 50.2116 64.5652 49.1598C64.5652 48.8831 64.6154 48.4426 64.6958 48.2246C65.1014 47.1274 66.4665 48.0119 66.5327 48.0119C66.7636 48.0119 67.5164 47.3456 67.5164 47.1099C67.5164 46.7043 67.587 46.6783 66.8704 46.2803C66.5981 46.129 66.3155 46.1494 66.0644 46.1093L65.7949 46.0442C65.4142 46.0442 64.7101 46.1049 64.4696 46.1944L64.1095 46.4082C64.094 46.4173 64.0726 46.4286 64.0569 46.4375C63.0358 47.0194 62.7616 48.022 62.7616 49.1596H62.7618ZM95.3057 52.439C95.2961 51.448 95.1495 47.0568 95.3775 46.5157C95.7555 46.1086 96.7346 46.924 97.3878 46.4038C97.6315 46.2097 97.3541 46.2572 97.7636 46.2077C97.7837 46.2053 98.4003 46.2107 98.4163 46.2139C98.5552 46.2417 98.5245 46.2434 98.5921 46.283L98.6816 46.3583C99.0532 46.6455 98.9726 46.4795 99.1541 46.7001C99.1064 46.9193 98.9128 47.0829 98.7643 47.2095C98.751 47.2209 98.7316 47.2356 98.718 47.2467C98.7048 47.2575 98.6846 47.2713 98.6711 47.2819L98.2586 47.6201C97.6829 47.5099 97.7668 46.9616 97.0135 47.5035C96.4095 47.9378 96.4001 47.671 96.3876 48.6654C96.3723 49.8945 96.3802 51.127 96.3704 52.3574C96.7641 52.075 96.7041 51.6935 96.7011 51.0459C96.6987 50.472 96.7016 49.8977 96.7009 49.3239C96.7001 48.7082 96.6195 48.1695 96.9611 47.8623C97.4953 47.382 98.1738 47.9302 98.2584 47.9302C98.5326 47.9302 99.413 46.9815 99.4881 46.7004C98.6216 45.4064 96.7919 46.3949 96.5368 46.4544C96.4722 46.2119 96.5034 46.3214 96.3728 46.1266C94.4447 46.1266 94.8972 45.6531 94.8972 49.4882C94.8972 50.0347 94.8984 50.5815 94.8972 51.128C94.895 51.9427 94.7521 52.1436 95.3057 52.4398V52.439ZM27.1804 52.3571C27.0205 50.5987 27.1206 48.5606 27.0886 46.6891C27.492 46.4798 27.4895 46.3071 28.0601 46.4684C28.4341 46.5745 28.4828 46.7011 28.6732 46.6719C28.6924 46.6689 28.7489 46.649 28.772 46.6431C30.1842 46.2859 29.3522 45.8791 31.0806 46.6554C30.9655 46.9488 30.5573 47.5433 30.2164 47.5578C29.8234 47.5746 29.8842 47.1552 29.2553 47.306L28.455 47.7959C28.4014 48.8287 28.2745 48.0662 28.2743 50.0613C28.2743 50.9153 28.2484 51.6783 28.1978 52.439C28.6914 52.2772 28.5785 51.7641 28.5768 51.1273L28.575 48.5018C28.6102 48.1853 28.8173 47.8336 29.1139 47.7263C30.1466 47.3525 29.7619 48.5503 30.9134 47.3972C31.0413 47.2691 31.1052 47.23 31.1957 47.1057C31.2727 47.0002 31.3647 46.8212 31.4458 46.6999C31.2031 46.5221 31.2815 46.4008 31.0007 46.2431C30.5681 46.0001 29.7902 46.0469 29.321 46.1325C28.8416 46.22 28.9735 46.2429 28.6584 46.4539C28.3633 46.2377 28.6082 46.1204 27.7581 46.1202C27.1041 46.1199 27.1666 46.1084 26.7728 46.372L26.7925 51.9277C26.857 52.2032 26.993 52.3065 27.1796 52.3571H27.1804ZM22.2649 46.513L23.1271 46.4923C23.6018 45.7844 22.9459 44.8913 23.5939 44.7391C24.6138 44.4995 24.298 45.2531 24.3337 45.9549C24.3937 47.1313 25.3415 45.9003 25.3909 46.8701C25.4207 47.4553 25.1064 47.214 24.6986 47.3365C24.0644 47.5273 24.2806 49.6857 24.342 50.3801C24.4502 51.5978 25.4537 50.1299 25.3432 52.3571C25.8007 52.1658 25.8939 51.7316 25.7493 51.2522C25.5813 50.6951 25.4687 51.1339 24.7242 50.6354L24.7149 48.1664C24.7183 47.7207 24.6571 47.7369 25.0471 47.6786C25.3253 47.637 25.5203 47.6956 25.6674 47.4786C25.7372 47.3756 25.8024 46.9769 25.7783 46.8005C25.6708 46.0176 25.189 46.3492 24.7245 46.1261C24.3984 45.7955 25.4266 44.5497 23.8283 44.4749C23.4795 44.4584 23.0462 44.3711 22.8883 44.7814C22.7516 45.1358 22.8391 45.7173 22.8391 46.1261C22.4469 46.3142 22.5081 46.1302 22.2654 46.5132L22.2649 46.513ZM104.98 49.9147C104.473 49.9083 104.667 50.0913 104.58 50.5296C104.498 50.9438 104.477 50.5269 104.259 51.0621C104.183 51.2481 104.242 51.1777 104.141 51.357L103.748 51.7132C103.679 51.7422 103.652 51.7363 103.563 51.7739C103.047 51.9914 102.845 52.2831 101.452 52.046C101.197 52.0027 100.585 51.5863 100.315 51.2827L99.8107 49.984C99.7018 47.6702 99.8031 48.4908 100.117 47.6523C100.244 47.3126 100.284 47.2336 100.468 47.0251C101.136 46.2675 101.083 46.8044 101.537 46.2151C101.956 46.1949 102.618 46.144 102.913 46.3086C102.962 46.3354 102.997 46.3811 103.105 46.4421C103.419 46.62 103.752 46.6955 104.163 47.2757C104.577 47.8591 104.54 47.9137 104.615 48.322C104.666 48.6054 104.677 48.6743 104.98 48.7011C104.965 48.1966 104.613 47.2782 104.275 46.9129L103.792 46.4933C103.778 46.4832 103.757 46.4709 103.743 46.4611C103.291 46.1571 102.734 46.0033 102.118 46.0444C101.331 46.0968 101.095 46.1598 100.558 46.5408L100.336 46.7279C100.323 46.7395 100.306 46.7562 100.294 46.768L99.9634 47.1754C99.4477 47.8336 99.3297 49.6805 99.5904 50.3678C99.8602 51.0791 99.9197 51.4854 100.703 52.042C100.809 52.1168 100.776 52.0934 100.912 52.1608C101.26 52.3315 101.41 52.4252 101.78 52.4415C102.805 52.4862 103.447 52.3866 104.153 51.6942C104.165 51.6824 104.183 51.666 104.195 51.6537L104.98 49.9142L104.98 49.9147ZM130.785 50.8813C129.963 50.8813 129.938 50.3879 129.347 50.4851C129.001 50.5419 128.511 51.0921 128.426 51.4552C128.553 51.9321 128.964 52.0312 129.392 52.2105C129.595 52.2954 129.717 52.381 130.001 52.4218L131.697 52.4309C132.26 52.3716 132.797 52.0632 133.175 51.6947C133.898 50.9888 133.921 49.5226 133.096 48.9163C132.531 48.5014 132.536 48.6059 131.837 48.4536C131.34 48.3452 130.855 48.2829 130.394 48.1754V47.7654C130.598 47.6675 130.685 47.6466 130.948 47.6014L130.88 47.2976C130.197 47.3281 130.098 47.5217 130.091 48.2219C130.279 48.3341 130.713 48.738 131.228 48.6005C131.942 48.4096 131.623 48.7336 132.298 48.892C132.688 48.9835 133.021 49.1596 133.232 49.5101C133.365 49.7309 133.363 50.6386 133.306 50.934C133.249 51.2286 133.129 51.2867 132.993 51.4303C132.671 51.7698 132.93 51.5413 132.506 51.7629C132.151 51.9488 132.371 51.9916 131.954 52.0585L129.854 52.0794C129.423 52.0907 129.666 52.0502 129.356 51.845C129.166 51.7188 129.02 51.722 128.821 51.6384L128.83 51.1052C129.185 50.888 129.086 50.8243 129.328 50.6548C129.7 50.8029 129.436 50.8279 129.967 50.9814L130.268 51.0879C130.284 51.0951 130.304 51.1076 130.321 51.1145C130.515 51.1922 130.379 51.1893 130.717 51.1912L130.785 50.8811L130.785 50.8813ZM114.175 49.8975C114.121 51.1797 114.556 50.976 115.719 50.9846C116.646 50.7052 116.459 48.3075 116.454 47.5192C116.447 46.6303 116.396 46.9031 116.704 46.2909C116.827 46.3206 117.435 46.4908 117.516 46.5312C117.704 47.3898 117.577 51.1366 117.546 52.275C117.575 52.2543 117.81 52.2698 117.852 51.7016L117.851 49.2412C117.851 48.1659 117.976 46.8278 117.605 46.1256C115.699 46.1256 116.034 45.66 116.048 49.0774C116.051 49.9449 116.063 50.4735 115.417 50.7505C114.842 50.9969 114.548 50.5913 114.326 50.1392C114.206 49.8933 114.381 50.0736 114.175 49.897V49.8975ZM18.6578 49.6321C18.5955 49.7199 18.6103 49.6655 18.5636 49.8281C18.5392 49.912 18.5296 49.9744 18.5272 50.0627C18.5119 50.5835 18.7815 50.5923 18.9763 50.965C20.7635 51.0493 20.2797 50.916 20.7893 50.7047C21.3488 51.023 21.3724 51.1689 21.3778 51.6409C20.9681 51.8052 21.1621 51.6918 20.839 51.9164C20.5283 52.1323 19.3479 52.1077 18.8985 52.0548C18.5264 52.011 18.809 52.0799 18.328 51.7865L17.6799 51.2048C17.542 51.0351 17.3494 50.3707 17.1733 50.0687C17.0058 49.7811 17.0112 49.882 17.0555 49.4537C17.1278 48.7532 16.8561 48.964 17.283 48.1976C17.4296 47.9347 17.4133 47.9216 17.522 47.6201C17.9109 46.5425 18.6236 46.6379 19.2301 46.1256C18.2281 46.1256 17.2992 46.9702 17.1195 47.6208L16.9001 48.3034C16.558 49.3667 17.0149 51.0879 17.7343 51.7223C19.4598 53.2438 22.6483 52.0689 21.3805 50.9453L21.1597 50.7561C20.3456 50.0832 20.1159 51.1106 19.4271 50.7751L19.2655 50.685C19.2438 50.6725 19.1799 50.639 19.1595 50.6253C18.8292 50.401 18.6573 50.0832 18.6573 49.6318L18.6578 49.6321ZM13.8264 50.8813L13.9056 51.1996C14.1547 50.9359 14.0458 51.0978 14.3817 50.9467C14.639 50.8309 14.9948 50.4622 15.4646 51.1273C15.4031 51.357 15.2577 51.5533 15.0937 51.665C14.9757 51.7452 14.9365 51.7383 14.8168 51.8003C14.3928 52.0189 14.7061 52.0799 13.8225 52.0703C13.4078 52.0659 12.5719 52.1357 12.2623 51.9525L11.732 51.661C11.5048 51.5398 11.1069 50.9399 11.0451 50.7079C10.8199 49.8588 10.7124 48.6354 11.0469 47.7782C11.1671 47.47 11.2018 47.6191 11.3447 47.2487C11.4991 46.8487 11.3496 47 11.6846 46.7798C12.3892 46.3172 12.2851 46.7646 12.687 46.1261C12.3439 46.1332 12.2131 46.1839 11.9775 46.3319C11.4113 46.6881 11.2124 46.8231 10.8895 47.4575C10.5461 48.1324 10.5402 48.2207 10.5397 49.4072C10.5397 49.8035 10.5749 49.9587 10.6074 50.2421C10.6735 50.8218 10.5717 50.5778 10.8425 50.9908C10.8558 51.0112 10.8932 51.0702 10.9054 51.0916L11.1979 51.5371C12.311 52.761 14.2484 52.6641 15.2413 51.9734C15.4606 51.8209 15.5875 51.6719 15.7887 51.5371C15.6207 51.1866 15.8145 51.3034 15.5273 50.9787C15.4373 50.8771 15.1542 50.5977 15.0526 50.5495C14.5886 50.3296 14.2251 50.8469 13.8266 50.8811L13.8264 50.8813ZM73.1766 52.3571C73.4009 52.318 73.362 52.3532 73.501 52.2752C73.7968 51.0055 73.3497 48.5289 73.7098 48.0566C73.8605 47.8589 73.8246 48.0018 73.9929 47.6838C75.466 47.6838 75.237 47.699 75.2223 51.0456C75.2213 51.2485 75.2028 51.5909 75.226 51.7786C75.269 52.1289 75.3563 52.1613 75.6195 52.2752C75.435 50.8393 75.7958 48.2756 75.373 47.8596C75.1842 47.6739 74.7041 47.2693 74.4043 47.2841C73.9665 47.3057 73.3099 48.052 73.2361 48.4197L73.1764 52.3574L73.1766 52.3571ZM87.7651 44.1283L91.7822 44.147C91.9807 44.3194 91.8843 44.3234 92.0235 44.404C92.3594 44.5991 92.4246 44.3531 92.8046 44.6936C93.1565 45.0086 93.2913 45.4745 93.4078 45.731C93.5972 46.1475 93.6811 45.8371 93.6833 46.5344C93.6855 47.1456 93.6383 46.9287 93.3134 47.7421C93.2025 48.0195 93.2472 47.8537 93.0869 48.0859C92.988 48.2288 93.0163 48.2271 92.8931 48.3853C92.3744 49.0496 92.3095 48.3011 91.8688 48.9852L89.5752 49.0963L89.6485 49.406C90.102 49.1918 90.9288 49.4156 91.5038 49.2917C91.8304 49.2213 92.2999 49.0909 92.5815 48.8937L92.9248 48.6632C93.9334 47.9275 94.1776 46.3388 93.4238 45.0581C92.9868 44.3158 92.1831 44.1138 91.4677 43.8988C91.042 43.7709 89.2157 43.8246 88.4968 43.8248C87.9503 43.825 88.0248 43.8319 87.7649 44.1286L87.7651 44.1283ZM34.8894 49.0026C35.4373 48.9505 35.1892 48.662 35.319 48.1991L36.2455 46.8258C36.2809 46.788 36.3869 46.6541 36.3898 46.6514C36.6336 46.4441 36.5652 46.5863 36.8854 46.4807C37.273 46.3528 36.9513 46.4436 37.2666 46.2144L38.4144 46.2117C38.7643 46.4734 38.4564 46.3905 39.0309 46.5727C39.4087 46.6925 39.465 46.7589 39.4908 47.2054C38.948 47.4282 39.2685 47.3256 38.9065 47.5935C38.1633 47.6051 38.5391 47.4919 38.1116 47.3281C37.7048 47.1724 37.5012 47.3367 37.2983 47.4749C36.5957 47.9541 36.667 47.8677 36.4582 48.8317C36.575 48.935 36.6581 49.0012 36.7752 49.0828C36.7752 48.6334 36.865 48.3722 37.1089 48.0175C37.3689 47.6392 37.8561 47.5898 38.2061 47.7273C38.768 47.9484 38.6305 48.3132 39.3592 47.6442C39.5026 47.5126 39.4465 47.5529 39.5616 47.4366C39.723 47.2735 39.6455 47.4142 39.8086 47.1916C39.8086 46.727 39.7808 46.6532 39.4579 46.4766C39.1689 46.3184 38.9967 46.1883 38.6517 46.1349C36.9363 45.87 35.5313 46.3425 35.1434 48.1009L34.8899 49.0021L34.8894 49.0026ZM13.1565 50.8816C12.9558 50.8641 12.7886 50.8373 12.5431 50.5178C12.3454 50.2605 12.3656 50.0814 12.4275 49.8156C13.3021 49.8156 14.1786 49.8096 15.0531 49.8178C16.4781 49.831 16.1497 49.2001 15.9584 48.3341C15.8271 47.7396 15.9006 47.8109 15.6316 47.3493L15.4119 46.9951C15.4009 46.9823 15.3832 46.9655 15.3719 46.9532C15.0548 46.6096 15.1156 46.6202 14.7986 46.4608C14.0866 46.1034 14.6318 46.2158 13.5514 46.0606C12.9125 45.9686 12.9905 46.0897 12.9199 46.1743C14.4653 46.2249 13.596 46.2124 14.1432 46.4618C14.5905 46.6657 14.3539 46.3199 14.9754 46.9424C15.438 47.4058 15.7287 48.2077 15.7353 48.8327C15.7459 49.8426 15.2386 49.6461 14.3136 49.6451C14.123 49.6448 12.1509 49.5388 12.0894 49.7437L12.0272 49.9799C11.9644 50.5389 12.2239 50.6459 12.2795 50.704C12.5035 50.9394 12.761 51.1957 13.1572 50.8813L13.1565 50.8816ZM120.72 48.9684C120.729 48.613 120.824 48.3398 120.983 48.1113C121.238 47.7465 121.327 47.6879 121.705 47.6732C122.905 47.6269 122.144 48.7176 123.553 47.3975C124.053 46.9282 123.82 46.7063 123.28 46.4357C122.796 46.1935 122.907 46.1211 121.941 46.0422C121.765 46.0277 121.515 46.0365 121.376 46.1512C121.625 46.1708 121.601 46.221 121.807 46.2387C121.981 46.2535 122.102 46.1969 122.36 46.1949C122.774 46.3779 122.319 46.1849 122.593 46.3883C122.887 46.6059 123.884 46.7033 123.026 47.4476C122.786 47.6557 122.822 47.6038 122.412 47.6186C121.85 46.8524 121.24 47.5069 121.112 47.5859C120.71 47.8348 120.817 47.5987 120.638 48.0901C120.52 48.4131 120.386 48.4431 120.425 48.8851L120.72 48.9684ZM18.6578 48.6917C18.6787 48.4094 18.9244 47.9991 19.1305 47.8286C19.3577 47.6407 19.8901 47.5839 20.1917 47.7898C20.275 47.8468 20.5497 48.3088 21.062 47.7932C21.1877 47.6665 21.2615 47.5632 21.3726 47.4474C21.3842 47.4351 21.4017 47.4181 21.4135 47.4063L21.5391 47.2858C21.94 46.8718 21.5468 46.5995 21.2187 46.4347C20.8623 46.2557 20.9218 46.1374 20.3525 46.1261L20.5045 46.3246C20.8402 46.6935 21.0296 46.4261 21.2098 46.6918C21.4545 47.0526 21.0795 47.3018 20.8178 47.606C20.0475 47.6078 20.4452 47.5854 20.0414 47.3657C19.5006 47.0716 19.1241 47.504 18.7431 47.8508C18.3941 48.1681 18.539 48.5235 18.6583 48.6917H18.6578ZM70.3857 44.9995C69.602 45.0266 68.9908 45.1948 68.9625 44.5462C68.9392 44.0137 69.4869 44.1635 70.3857 44.2218C70.251 43.7736 69.8902 43.8206 69.3152 43.8231C68.6851 43.826 68.5988 43.9729 68.5747 44.5701C68.5459 45.275 68.7038 45.3016 69.2571 45.3714C69.8002 45.4401 70.2638 45.3985 70.3857 44.9993V44.9995ZM33.9057 44.9376C33.6428 44.9622 33.5823 45.0003 33.2488 45.0165C33.1617 45.0207 32.9455 45.0318 32.8698 45.0305C32.5847 45.0251 32.5024 44.9545 32.4288 44.7002C32.222 43.9837 33.1133 44.1935 33.9054 44.2193C33.7401 43.6789 33.0461 43.8307 32.3479 43.8307L32.1194 44.0941C32.102 44.8827 31.8986 45.2376 32.6214 45.3619C32.8951 45.4088 33.1969 45.4046 33.4556 45.3486C33.7812 45.2777 33.871 45.2662 33.9057 44.9378V44.9376ZM33.9057 44.9376C34.0131 44.6485 34.0259 44.5071 33.9057 44.2193C33.1135 44.1935 32.2222 43.9837 32.4291 44.7002C32.5024 44.9545 32.5848 45.0251 32.87 45.0305C32.9458 45.032 33.162 45.0209 33.249 45.0165C33.5827 45.0003 33.6432 44.9624 33.9059 44.9376H33.9057ZM70.3857 44.9995C70.4413 44.8667 70.4627 44.8438 70.4728 44.6439C70.4876 44.3467 70.4804 44.3925 70.3857 44.2218C69.4869 44.1635 68.9392 44.0137 68.9625 44.5462C68.9908 45.1948 69.602 45.0266 70.3857 44.9995Z" fill="#8F8F8F"/>
</svg>
