<svg width="164" height="32" viewBox="0 0 164 32" fill="none" xmlns="http://www.w3.org/2000/svg">
<path d="M88.837 1.1397V18.2151L69.411 0.289014V30.6799H75.1516V13.7084L94.5709 31.6052V1.1397H88.837ZM44.202 3.88049e-05C41.0135 -0.00692313 37.8946 0.923036 35.2405 2.6721C32.5864 4.42117 30.5165 6.91063 29.293 9.82512C28.0694 12.7393 27.7462 15.9471 28.3642 19.0431C28.9823 22.1391 30.5138 24.9842 32.7652 27.2187C37.3691 31.7871 44.3053 33.1572 50.3148 30.6929C53.7344 29.2641 56.5519 26.7123 58.2926 23.4674C60.0333 20.2225 60.5909 16.4829 59.8713 12.8787C59.1517 9.2744 57.1989 6.02582 54.3421 3.68026C51.4852 1.3347 47.8988 0.0355369 44.1872 0.00166445L44.202 3.88049e-05ZM44.202 26.1651C42.1569 26.1822 40.1525 25.5992 38.4419 24.4897C36.7313 23.3802 35.3912 21.7939 34.5907 19.9311C32.9604 16.1322 33.8166 11.7051 36.7606 8.76176C39.7047 5.81846 44.1528 4.92557 48.0235 6.50193C51.8943 8.07829 54.4201 11.8106 54.4201 15.9536C54.4246 18.6479 53.3531 21.2347 51.4391 23.1505C49.5252 25.0662 46.9238 26.1556 44.202 26.1813V26.1651ZM18.2876 16.2134C16.7574 15.0575 14.7498 14.124 11.7484 13.1824C5.91437 11.3479 5.91437 9.89005 5.91437 9.18873C5.91437 7.56528 7.76446 5.84931 10.8643 5.84931C12.8101 5.89443 14.6933 6.53848 16.2522 7.69191L16.6541 7.99063L21.2924 4.8866L20.7872 4.2908C19.5195 2.93972 17.9841 1.86161 16.2769 1.12368C14.5697 0.385742 12.7272 0.00380172 10.8643 0.00166445C7.87927 0.00166445 5.1353 0.956247 3.14416 2.66086C2.17767 3.46238 1.39668 4.4603 0.854176 5.58692C0.311674 6.71353 0.0203594 7.94248 0 9.19035C0 11.8106 1.15466 14.012 3.43283 15.7296C4.96309 16.8855 6.97063 17.819 9.9721 18.7605C15.8061 20.595 15.8061 22.0529 15.8061 22.7493C15.8061 24.3923 13.9527 26.0936 10.8561 26.0936C8.90928 26.0514 7.02639 25.4069 5.46825 24.251L5.06642 23.9523L0.424798 27.0563L0.929964 27.6522C3.49188 30.3828 7.0838 31.9413 10.8496 31.9543C13.8314 31.9543 16.5901 30.9997 18.5698 29.2951C20.5379 27.6716 21.6631 25.2884 21.686 22.7656C21.6893 20.1356 20.5346 17.944 18.2417 16.2166L18.2876 16.2134ZM119.816 0.0974476C113.298 0.0974476 107.421 3.98397 104.927 9.94525C102.432 15.9065 103.812 22.7672 108.42 27.3291C110.675 29.5592 113.546 31.0779 116.672 31.6933C119.798 32.3088 123.038 31.9934 125.983 30.787C132.002 28.3194 135.931 22.4993 135.929 16.0462C135.922 11.8184 134.221 7.76595 131.201 4.77678C128.18 1.78761 124.086 0.105509 119.814 0.0990702L119.816 0.0974476ZM119.816 26.2625C117.771 26.2796 115.767 25.6966 114.056 24.5871C112.345 23.4776 111.005 21.8913 110.205 20.0285C109.409 18.1634 109.19 16.1063 109.576 14.118C109.962 12.1296 110.935 10.2994 112.373 8.85917C115.316 5.91587 119.765 5.02135 123.634 6.59609C127.503 8.17083 130.031 11.9047 130.031 16.0445C130.047 21.6535 125.483 26.2235 119.813 26.2641L119.816 26.2625ZM145.73 15.801C147.259 16.9569 149.268 17.8904 152.27 18.832C158.102 20.6665 158.102 22.1243 158.102 22.8208C158.102 24.4637 156.252 26.1651 153.155 26.1651C151.212 26.1159 149.331 25.4691 147.776 24.3144L147.371 24.0189L142.732 27.1034L143.237 27.6992C144.506 29.0499 146.042 30.1278 147.75 30.8657C149.457 31.6035 151.3 31.9857 153.164 31.9884C156.145 31.9884 158.904 31.0338 160.884 29.3292C162.852 27.7057 163.977 25.3225 164 22.7997C164 20.1827 162.845 17.9829 160.566 16.2637C159.037 15.1078 157.028 14.1743 154.026 13.2327C148.194 11.3982 148.194 9.94038 148.194 9.24393C148.194 7.601 150.044 5.89963 153.141 5.89963C155.086 5.94327 156.968 6.58751 158.525 7.74224L158.93 8.04095L163.569 4.93693L163.063 4.34113C160.5 1.61049 156.903 0.0552383 153.137 0.0519914C150.156 0.0519914 147.397 1.00657 145.417 2.71119C144.45 3.51333 143.67 4.51313 143.131 5.64191C142.591 6.7707 142.305 8.00171 142.291 9.25042C142.291 11.8804 143.439 14.0672 145.735 15.7864L145.73 15.801Z" fill="#8F8F8F"/>
</svg>
