<svg width="328" height="43" viewBox="0 0 328 43" fill="none" xmlns="http://www.w3.org/2000/svg">
<path fill-rule="evenodd" clip-rule="evenodd" d="M203.296 21.0791C202.556 20.0696 199.604 18.0758 198.376 17.0671L188.447 9.13185C186.476 7.64964 183.645 4.66619 183.645 7.14447V41.0869C183.645 42.9268 187.174 42.1591 192.221 42.1591V22.5082C193.48 22.8444 192.842 22.7088 193.775 23.4551C197.2 26.1959 199.958 28.9652 203.654 31.4403C204.112 30.7559 213.37 22.8714 214.73 22.5082C214.42 23.9714 214.894 23.988 214.685 26.0119C214.236 30.3681 214.373 32.982 214.373 37.5142C214.373 39.1281 214.626 39.0234 214.574 40.3335C214.481 42.6865 213.438 42.1591 222.948 42.1591V5.71619C220.092 7.22694 206.731 18.7801 203.297 21.0799L203.296 21.0791Z" fill="#8F8F8F"/>
<path fill-rule="evenodd" clip-rule="evenodd" d="M105.399 20.7216C104.581 20.7216 96.9549 14.2884 95.6504 13.3209C93.9318 12.0465 92.5345 10.887 90.8627 9.5333C89.3131 8.2787 87.2234 6.19536 85.7484 6.07323V42.1593H93.9659V22.5084C95.6979 22.9707 98.2571 25.6972 99.6798 26.7988L105.399 31.4405C106.144 30.9416 107.303 29.8964 108.147 29.1866L113.619 24.6544C114.854 23.6908 114.969 23.3054 116.475 22.5084L116.473 37.8729C116.443 43.0531 115.009 42.1593 125.049 42.1593V6.78777C125.049 4.62751 122.513 7.23426 120.484 9.01148L115.504 12.964C114.732 13.5374 106.036 20.7216 105.398 20.7216H105.399Z" fill="#8F8F8F"/>
<path fill-rule="evenodd" clip-rule="evenodd" d="M37.8728 20.3647C37.8728 29.1866 41.5414 36.2201 49.1864 40.4923C57.994 45.4155 72.2023 43.26 77.8892 32.5126C74.468 32.5126 70.9175 32.4174 67.5138 32.4983C63.3963 32.5967 57.6689 37.3922 50.4553 30.6489C45.6796 26.1841 45.4068 16.9855 50.4537 12.2233C52.8138 9.99717 56.3786 8.57444 60.025 8.57444C63.7294 8.57444 64.2988 10.362 67.8659 10.3802C71.0801 10.3969 74.3142 10.3612 77.5316 10.3612C77.0954 5.12151 67.1966 0 60.0242 0C54.7338 0 51.0588 0.795427 46.8477 3.97396C43.5066 6.49586 41.9943 8.18743 40.0117 12.1439C38.8863 14.3899 37.872 17.0045 37.872 20.3655L37.8728 20.3647Z" fill="#8F8F8F"/>
<path fill-rule="evenodd" clip-rule="evenodd" d="M265.821 42.1592C270.868 42.1592 274.396 42.9269 274.396 41.087V13.933C278.133 13.933 286.901 12.4706 286.901 18.2202C286.901 22.4646 282.356 23.2672 279.756 25.0087C279.864 26.3125 281.158 28.1674 281.78 29.4149L288.33 42.1584H297.62C297.472 40.3899 291.375 30.5601 290.831 28.2245C292.72 25.4045 295.119 24.9175 295.119 17.8634C295.119 10.9456 288.447 5.71545 284.043 5.71545H265.821V42.1584V42.1592Z" fill="#8F8F8F"/>
<path fill-rule="evenodd" clip-rule="evenodd" d="M166.138 30.3682C166.138 36.8482 153.52 30.3682 153.276 30.3682C151.914 30.3682 150.915 33.3041 150.298 34.5365C149.392 36.3447 147.9 37.9839 149.685 39.2988C153.598 42.1791 163.668 43.5915 169.501 41.5923C179.012 38.3336 180.656 23.3839 169.645 20.4306C167.944 19.9746 164.071 19.3274 162.99 18.4931C161.094 17.0276 161.822 14.6484 165.781 14.6484C168.316 14.6484 169.792 15.5969 171.855 16.0775C173.183 15.1877 176.333 10.9441 176.5 8.93136C170.468 2.57191 149.217 4.63145 151.049 18.9904C152.467 30.1097 166.138 25.7345 166.138 30.369V30.3682Z" fill="#8F8F8F"/>
<path fill-rule="evenodd" clip-rule="evenodd" d="M6.07396 8.93132C6.07396 14.9799 4.89549 13.5762 18.5795 13.5762L5.76625 32.9194C4.49817 34.7443 0.298186 40.8809 0 42.1593H32.5134C32.5134 31.8036 34.2787 33.584 24.6535 33.584C21.6764 33.584 18.6985 33.584 15.7214 33.584C18.4344 28.457 33.7283 7.45784 34.3001 5.00098H6.43162C6.43162 6.8123 6.07396 6.94712 6.07396 8.93132Z" fill="#8F8F8F"/>
<path fill-rule="evenodd" clip-rule="evenodd" d="M298.334 13.933C310.086 13.933 307.981 11.9432 307.981 22.8651C307.981 26.2141 307.812 30.1595 308.275 32.9328C309.125 38.0274 313.648 42.1591 319.414 42.1591C326.902 42.1591 326.202 43.2853 326.202 35.7275C326.202 34.7624 326.032 34.7425 325.844 33.9416C322.203 33.093 316.555 35.0106 316.555 31.0834V15.0052C316.555 14.182 316.803 13.9338 317.627 13.9338H327.631V5.71619H298.334V13.9338L298.334 13.933Z" fill="#8F8F8F"/>
<path fill-rule="evenodd" clip-rule="evenodd" d="M227.234 42.1593H236.524L244.027 25.7241C245.252 26.6211 251.626 41.0379 251.887 42.1593H261.177C261.078 40.9697 257.961 34.6705 257.251 33.2232L248.823 15.2123C247.972 13.1511 245.096 7.59028 244.742 6.07397C243.456 6.41736 243.825 6.37851 243.172 7.71955L227.234 42.1593Z" fill="#8F8F8F"/>
<path fill-rule="evenodd" clip-rule="evenodd" d="M134.34 7.85906V40.0148C134.34 42.9031 136.065 42.1584 141.485 42.1584C142.322 42.1584 142.914 41.566 142.914 40.7293V7.14452C142.914 5.02946 139.5 5.71545 135.769 5.71545C134.671 5.71545 134.34 6.76227 134.34 7.85906Z" fill="#8F8F8F"/>
<path fill-rule="evenodd" clip-rule="evenodd" d="M57.8806 20.7215C57.8806 28.2229 64.4455 26.7954 73.2435 26.7954C74.7337 26.7954 76.7893 26.5393 77.7592 25.9516C78.7592 25.3473 79.8044 23.8897 80.1502 22.5923C80.8505 19.9641 78.6418 16.4335 75.744 16.4335H62.167C60.1773 16.4335 57.8798 18.7309 57.8798 20.7207L57.8806 20.7215Z" fill="#8F8F8F"/>
</svg>
